<svg width="657" height="625" viewBox="0 0 657 625" fill="none" xmlns="http://www.w3.org/2000/svg">
<path d="M626.568 264.877C644.682 251.351 656.414 229.745 656.414 205.417C656.414 166.063 625.752 133.901 587.002 131.397C585.151 58.5136 525.431 0 452.027 0C377.456 0 317.007 60.3918 317.007 134.892C317.007 138.983 317.197 143.016 317.561 147.005C311.455 142.797 304.067 140.337 296.095 140.337C275.853 140.337 259.327 156.192 258.263 176.138C241.242 150.586 212.169 133.741 179.146 133.741C146.692 133.741 118.056 150.004 100.918 174.813C94.7248 172.105 87.8755 170.591 80.6764 170.591C52.7398 170.591 30.1079 193.216 30.1079 221.111C30.1079 241.946 42.7282 259.839 60.755 267.555C24.5701 287.225 0 325.53 0 369.572C0 433.647 51.982 485.58 116.118 485.58C121.787 485.58 127.339 485.173 132.79 484.387C126.101 495.961 122.253 509.385 122.253 523.711C122.253 567.214 157.549 602.477 201.093 602.477C224.76 602.477 245.964 592.052 260.42 575.557C281.478 605.345 316.191 624.796 355.466 624.796C419.383 624.796 471.249 573.271 471.744 509.53C486.404 517.057 503.003 521.338 520.622 521.338C579.73 521.338 627.646 473.467 627.646 414.415C627.646 388.019 618.057 363.865 602.173 345.215C625.766 344.021 644.537 324.526 644.537 300.663C644.566 286.017 637.483 273.015 626.568 264.877Z" fill="black"/>
</svg>
