<svg width="167" height="13" viewBox="0 0 167 13" fill="none" xmlns="http://www.w3.org/2000/svg">
<path d="M166.477 4.02711C165.663 3.88661 164.852 3.89185 164.028 3.84816C163.218 3.81458 162.402 3.7323 161.594 3.61141C159.797 3.32544 157.993 3.03926 156.195 2.76299C152.726 2.24329 149.254 1.8206 145.771 1.54322C142.576 1.28406 139.379 1.09281 136.18 0.998567C135.348 0.974073 134.524 0.959488 133.692 0.944695C130.519 0.899792 127.339 0.864382 124.164 0.887389C116.735 0.950149 109.306 1.01291 101.878 1.2699C94.6193 1.52218 87.3597 1.81326 80.104 2.21126C76.5362 2.40718 72.969 2.58369 69.4003 2.80871C65.5419 3.05432 61.6849 3.25143 57.832 3.54576C49.8785 4.16595 41.9256 4.76674 33.9654 5.37703C27.0584 5.91153 20.1687 6.81551 13.2989 8.00166C8.86033 8.78364 4.43894 9.70207 0.0217332 10.7177L0.0214474 10.7274C5.04015 11.3219 10.0722 11.7031 15.1164 11.91C18.4135 12.0459 21.7142 12.0558 25.0178 11.9686C27.1496 11.9149 29.2828 11.8126 31.41 11.6714C32.7175 11.5837 34.027 11.428 35.3356 11.3015C38.8375 10.9483 42.3397 10.5854 45.8413 10.2419C49.8453 9.84519 53.8507 9.4 57.86 9.06173C61.9897 8.70759 66.1267 8.34395 70.2564 7.98981C73.9688 7.67193 77.6861 7.43187 81.3974 7.15279C85.0239 6.88093 88.6475 6.70608 92.2722 6.49242C95.9251 6.27959 99.5758 6.14438 103.234 5.98026C106.949 5.81781 110.675 5.78189 114.387 5.69705C121.177 5.53779 127.968 5.62127 134.756 5.76296C138.527 5.84491 142.31 5.76214 146.086 5.69857C149.805 5.63334 153.533 5.51011 157.256 5.30906C158.768 5.22736 160.293 5.18489 161.8 5.01567C162.536 4.94025 163.265 4.83551 163.99 4.65296C164.63 4.48731 165.264 4.25355 165.911 4.10752C166.088 4.0642 166.286 4.05061 166.477 4.02711C166.484 4.02732 166.484 4.02732 166.477 4.02711Z" fill="#2B2E32"/>
</svg>
