<svg width="1920" height="129" viewBox="0 0 1920 129" fill="none" xmlns="http://www.w3.org/2000/svg">
<path d="M2446.79 155.241C2447.47 157.02 2447.89 158.856 2448 160.691L2447.87 160.937C2448.17 165.725 2446.41 170.683 2441.91 175.339C2433.68 183.86 2420.64 185.869 2408.88 187.68C2406.38 188.066 2403.94 188.442 2401.61 188.87C2379.85 192.881 2357.75 193.847 2335.67 193.279C2318.49 192.844 2301.33 191.462 2284.29 189.854C2277.87 189.248 2271 188.359 2264.86 186.277C2264.08 186.031 2263.33 185.747 2262.59 185.444C2261.12 184.839 2259.68 184.157 2258.32 183.382C2254.92 181.432 2251.95 178.896 2249.72 175.528C2239.42 188.491 2223.38 195.947 2207.11 198.975C2206.09 199.164 2205.07 199.354 2204.05 199.505C2196.9 200.603 2189.66 201 2182.42 201C2178.28 201 2174.12 200.868 2169.98 200.659C2165.84 200.451 2161.68 200.186 2157.56 199.883C2156.52 199.82 2155.47 199.74 2154.42 199.66C2153.9 199.621 2153.38 199.581 2152.85 199.543C2152.46 199.514 2152.07 199.481 2151.67 199.448C2151.28 199.415 2150.89 199.382 2150.49 199.354C2137.88 198.313 2125.1 196.723 2113.19 193.128C2111.7 192.692 2110.23 192.2 2108.77 191.689C2107.32 191.178 2105.86 190.63 2104.44 190.043C2104.03 189.864 2103.61 189.684 2103.19 189.505C2102.9 189.381 2102.61 189.258 2102.32 189.134C2096.69 186.636 2091.38 183.533 2086.48 179.616C2085.03 178.442 2083.59 177.174 2082.34 175.774H2062.82L2007.6 175.698C2010.64 175.982 2013.84 176.323 2016.41 177.988C2016.58 178.083 2016.73 178.196 2016.88 178.31C2017.18 178.556 2017.48 178.802 2017.75 179.086C2018.01 179.351 2018.28 179.653 2018.5 179.975C2019.3 181.073 2019.83 182.379 2019.87 183.665C2019.88 184.403 2019.77 185.141 2019.45 185.842C2018.43 188.113 2016.03 189.116 2013.5 189.645C2012.66 189.816 2011.79 189.929 2010.98 190.024C2003.46 190.857 1995.92 191.462 1988.35 191.841C1983.32 192.087 1978.28 192.257 1973.23 192.352C1968.18 192.446 1963.14 192.465 1958.09 192.408C1953.04 192.371 1947.97 192.257 1942.93 192.087C1937.88 191.916 1932.81 191.708 1927.77 191.462C1925.17 191.336 1922.59 191.2 1920 191.057V578H-1V190.335C-5.95514 190.03 -10.9167 189.705 -15.8741 189.379C-17.7007 189.26 -19.5266 189.14 -21.3514 189.021L-64.9626 186.126C-67.4201 185.974 -70.0477 185.671 -72.5808 185.104C-73.0724 184.99 -73.5827 184.858 -74.0742 184.725C-74.509 184.593 -74.9438 184.46 -75.3597 184.328C-81.3522 186.788 -87.7606 188.188 -94.2257 188.396C-93.9797 188.497 -93.7403 188.605 -93.5036 188.711C-93.3402 188.784 -93.178 188.857 -93.0159 188.926L-94.963 188.434C-102.506 188.567 -110.029 187.034 -116.986 184.101C-117.553 183.874 -118.082 183.628 -118.631 183.382C-124.566 180.656 -130.03 176.909 -134.642 172.273C-135.323 171.573 -136.003 170.873 -136.646 170.135C-141.561 174.184 -147.289 177.212 -153.395 179.048C-154.926 179.502 -156.457 179.899 -158.026 180.202C-159.652 180.524 -161.278 180.751 -162.922 180.902C-166.022 181.186 -169.179 181.186 -172.28 180.846C-175.002 180.543 -177.686 179.994 -180.314 179.237C-183.244 180.373 -186.269 181.281 -189.331 181.962C-201.013 184.536 -213.358 183.76 -224.719 180.032C-225.967 179.616 -227.233 179.18 -228.462 178.688C-232.167 177.231 -235.74 175.452 -239.143 173.371C-242.545 171.289 -245.74 168.886 -248.708 166.217C-245.759 168.886 -270.693 183.041 -273.075 183.836C-274.323 184.252 -275.589 184.668 -276.837 185.066C-282.489 186.883 -288.217 188.51 -294.039 188.832C-295.325 188.888 -296.629 188.907 -297.933 188.832C-299.238 188.756 -300.542 188.605 -301.865 188.378C-302.527 188.264 -303.189 188.132 -303.85 187.961C-315.268 185.16 -325.155 177.515 -332.055 167.996C-356.082 187.28 -393.965 186.428 -417.103 166.085C-420.6 168.961 -424.438 171.365 -428.502 173.295C-430.128 174.071 -431.792 174.752 -433.474 175.377C-435.156 176.001 -436.877 176.55 -438.616 177.004C-454.287 181.167 -471.735 179.18 -485.819 171.194C-489.713 168.98 -493.38 166.312 -496.651 163.17C-499.921 164.476 -503.494 165.498 -507.067 165.933C-509.449 166.217 -511.811 166.255 -514.08 165.933C-514.647 165.858 -515.214 165.763 -515.762 165.631C-517.161 165.309 -518.485 164.836 -519.732 164.211C-520.999 163.587 -522.19 162.811 -523.267 161.827C-524.78 160.445 -525.933 158.723 -526.727 156.85C-527.842 154.238 -528.239 151.305 -527.861 148.504C-527.854 148.464 -527.845 148.426 -527.836 148.388C-527.82 148.321 -527.804 148.255 -527.804 148.182C-527.464 146.044 -526.708 143.981 -525.46 142.202C-523.664 139.61 -520.999 137.755 -518.031 136.752C-514.212 135.465 -509.902 135.617 -506.31 137.471C-506.934 135.011 -507.104 132.437 -506.878 129.921C-506.367 124.376 -503.872 118.982 -499.808 115.16C-496.972 112.51 -493.437 110.656 -489.675 109.728C-485.573 108.725 -481.187 108.801 -477.161 110.088C-477.255 109.35 -477.312 108.631 -477.369 107.893C-477.407 107.647 -477.407 107.401 -477.407 107.155C-477.425 106.663 -477.444 106.171 -477.444 105.679V104.808C-477.444 104.371 -477.427 103.952 -477.409 103.517L-477.407 103.464C-477.397 103.296 -477.382 103.134 -477.367 102.973C-477.353 102.827 -477.34 102.682 -477.331 102.537C-477.293 102.102 -477.255 101.667 -477.199 101.25C-477.186 101.04 -477.158 100.839 -477.129 100.634C-477.114 100.525 -477.098 100.416 -477.085 100.304C-477.047 100.096 -477.014 99.8878 -476.981 99.6796C-476.948 99.4714 -476.915 99.2632 -476.877 99.0551C-476.849 98.8942 -476.82 98.738 -476.792 98.5819C-476.764 98.4258 -476.735 98.2697 -476.707 98.1089C-476.631 97.6925 -476.537 97.2762 -476.442 96.8788C-476.405 96.7275 -476.367 96.5714 -476.329 96.4153C-476.291 96.2591 -476.253 96.103 -476.216 95.9515C-476.149 95.6703 -476.063 95.3796 -475.978 95.0929C-475.943 94.9744 -475.908 94.8566 -475.875 94.7403C-475.828 94.5889 -475.785 94.4422 -475.743 94.2956C-475.7 94.1489 -475.658 94.0023 -475.611 93.8509C-475.478 93.4346 -475.327 92.9993 -475.176 92.583C-475.025 92.1666 -474.873 91.7692 -474.703 91.3529C-474.514 90.8609 -474.306 90.3688 -474.098 89.8768C-474.013 89.6971 -473.928 89.5221 -473.843 89.347C-473.758 89.172 -473.673 88.9969 -473.588 88.8171C-473.556 88.7491 -473.525 88.6801 -473.493 88.6105C-473.391 88.3893 -473.287 88.1624 -473.172 87.9465C-472.983 87.5681 -472.794 87.2085 -472.586 86.8489C-472.51 86.7259 -472.44 86.5982 -472.369 86.4705C-472.298 86.3427 -472.227 86.215 -472.151 86.092C-472.038 85.9122 -471.924 85.7277 -471.811 85.5433C-471.698 85.3587 -471.584 85.1742 -471.471 84.9944C-471.395 84.8808 -471.324 84.7673 -471.253 84.6538C-471.182 84.5402 -471.112 84.4266 -471.036 84.3131C-470.79 83.9346 -470.544 83.5561 -470.28 83.1966C-470.196 83.0644 -470.104 82.94 -470.015 82.8183C-469.963 82.7482 -469.912 82.679 -469.864 82.6099C-469.58 82.2125 -469.297 81.8529 -468.994 81.4744C-468.928 81.3988 -468.867 81.3231 -468.805 81.2474C-468.744 81.1717 -468.682 81.096 -468.616 81.0203C-468.496 80.8803 -468.379 80.7404 -468.262 80.6013C-468.047 80.3454 -467.835 80.0922 -467.614 79.847C-467.52 79.7523 -467.444 79.6766 -467.369 79.582C-460.317 71.8231 -450.242 67.5462 -439.429 70.3659C-436.782 71.0472 -434.098 72.1259 -431.413 73.7155C-429.693 62.5502 -424.173 51.5931 -414.816 45.2913C-405.459 38.9895 -391.98 38.3839 -383.209 45.4805C-382.944 33.2176 -375.175 21.8631 -364.74 15.4288C-354.305 8.99458 -341.582 7.02646 -329.371 7.9159C-315.911 8.88103 -302.584 14.0663 -292.508 23.1688C-280.674 33.88 -278.614 48.0353 -279.502 63.591C-276.893 63.0801 -274.247 62.7205 -271.582 62.5881C-270.731 62.5502 -269.899 62.5502 -269.048 62.5502C-268.897 62.5502 -268.746 62.5549 -268.595 62.5597C-268.443 62.5644 -268.292 62.5691 -268.141 62.5691C-267.706 62.588 -267.271 62.607 -266.837 62.6448C-266.345 62.6827 -265.854 62.7205 -265.362 62.7773C-265.249 62.7962 -265.131 62.8104 -265.012 62.8246C-264.894 62.8388 -264.776 62.853 -264.663 62.8719C-264.02 62.9665 -263.377 63.0801 -262.735 63.2125C-262.602 63.2315 -262.451 63.2693 -262.3 63.3072C-261.6 63.4586 -260.901 63.6478 -260.201 63.856C-254.682 65.5781 -250.56 69.1169 -247.668 73.6587C-244.152 79.1468 -242.413 86.092 -242.073 92.9993C-239.237 90.4256 -235.797 88.4575 -232.167 87.3599C-222.715 84.5213 -212.431 86.5651 -203.244 90.1796C-203.017 89.328 -202.734 88.4953 -202.45 87.6816C-202.375 87.4545 -202.299 87.2274 -202.204 87.0003C-201.959 86.3191 -201.675 85.6567 -201.392 85.0133C-201.335 84.8619 -201.259 84.6916 -201.184 84.5213C-200.824 83.7454 -200.446 82.9884 -200.031 82.2314C-199.898 81.9854 -199.766 81.7583 -199.634 81.5312C-199.312 80.9824 -198.991 80.4336 -198.651 79.9037L-198.65 79.9027C-198.499 79.657 -198.348 79.4114 -198.178 79.1657C-197.724 78.4844 -197.252 77.8221 -196.76 77.1597C-196.639 76.9895 -196.509 76.8271 -196.382 76.6675C-196.312 76.5787 -196.242 76.4907 -196.174 76.4027C-196.046 76.2479 -195.921 76.0931 -195.796 75.9391C-195.57 75.6602 -195.347 75.3841 -195.116 75.1159L-194.322 74.2075C-193.981 73.8292 -193.622 73.4509 -193.263 73.0725C-192.791 72.5805 -192.299 72.088 -191.807 71.6149C-191.505 71.3126 -191.185 71.0103 -190.864 70.708L-190.862 70.7066C-190.649 70.5043 -190.422 70.3087 -190.194 70.1118C-190.038 69.9772 -189.882 69.8419 -189.728 69.7036L-188.934 69.0223C-187.989 68.2275 -187.006 67.4705 -186.004 66.7325C-185.676 66.4927 -185.348 66.2698 -185.021 66.0469C-184.857 65.9355 -184.693 65.8241 -184.529 65.7105C-184.416 65.6348 -184.307 65.5638 -184.198 65.4928C-184.09 65.4219 -183.981 65.3509 -183.868 65.2753C-179.161 62.1906 -173.943 59.7494 -168.537 58.1408C-158.896 55.2454 -148.725 54.9426 -139.935 58.0841C-130.03 61.6229 -121.863 69.855 -118.045 79.5442C-111.523 80.5093 -105.209 82.8938 -99.7267 86.5272C-99.6322 86.3474 -99.533 86.1676 -99.4337 85.9878C-99.3345 85.8081 -99.2353 85.6283 -99.1407 85.4485C-98.8572 84.9187 -98.5736 84.4077 -98.2711 83.8968C-97.9498 83.329 -97.6095 82.7613 -97.2693 82.1936C-97.1087 81.9289 -96.9482 81.669 -96.7878 81.4091C-96.6269 81.1486 -96.466 80.8881 -96.3052 80.6229C-96.135 80.3674 -95.9649 80.1072 -95.7947 79.847C-95.6246 79.5868 -95.4545 79.3265 -95.2843 79.0711C-95.1858 78.9205 -95.0887 78.77 -94.9918 78.6198C-94.7356 78.2226 -94.4812 77.8281 -94.2068 77.4436C-94.0464 77.2168 -93.8859 76.9947 -93.7254 76.7727C-93.5645 76.55 -93.4036 76.3274 -93.2427 76.1C-93.1195 75.9318 -92.9963 75.7619 -92.8727 75.5914C-92.5788 75.1863 -92.2822 74.7774 -91.9762 74.3779C-91.9034 74.2685 -91.8228 74.167 -91.7444 74.0683C-91.7007 74.0132 -91.6576 73.959 -91.617 73.9047C-90.4071 72.3151 -89.1217 70.7633 -87.7984 69.2683C-87.7039 69.1548 -87.5905 69.0223 -87.4771 68.8898L-87.4762 68.8889C-86.8716 68.2269 -86.267 67.5648 -85.6434 66.9217C-85.4166 66.6757 -85.1897 66.4297 -84.9629 66.2026C-84.3579 65.5781 -83.7341 64.9725 -83.1103 64.3669C-82.8458 64.14 -82.6003 63.8942 -82.3547 63.6484C-81.7119 63.0428 -81.0687 62.4556 -80.4259 61.8689C-80.1802 61.6608 -79.9155 61.4337 -79.6698 61.2066C-79.0081 60.6199 -78.3276 60.0522 -77.6471 59.4845C-77.5337 59.3899 -77.4155 59.2952 -77.2974 59.2006C-77.1792 59.106 -77.0611 59.0114 -76.9476 58.9167C-76.2104 58.3301 -75.492 57.7624 -74.7548 57.1946C-74.6697 57.1284 -74.5799 57.0621 -74.4901 56.9959C-74.4003 56.9297 -74.3105 56.8635 -74.2255 56.7972C-54.7167 42.2256 -29.4612 35.9616 -4.62152 43.5881C5.18958 19.4597 29.481 1.93583 55.436 0.232653C81.391 -1.47053 107.762 12.7227 120.711 35.2236C135.91 24.2097 158.764 28.865 171.903 42.2823C174.511 44.9506 176.761 47.865 178.727 50.9875C179.634 52.4446 180.485 53.9397 181.26 55.4725C181.335 55.6042 181.41 55.7545 181.485 55.9049L181.487 55.9078C181.808 56.5512 182.111 57.2136 182.413 57.8759C182.479 58.0178 182.541 58.1598 182.602 58.3017C182.664 58.4436 182.725 58.5856 182.791 58.7275C183.075 59.3709 183.339 60.0144 183.604 60.6578C183.736 60.9596 183.849 61.2614 183.962 61.5632L183.963 61.5661C184.045 61.7869 184.129 62.0077 184.213 62.2285C184.381 62.6701 184.549 63.1116 184.7 63.5532C184.757 63.7235 184.814 63.8749 184.871 64.0452C185.324 65.3888 185.74 66.7514 186.118 68.1329C186.165 68.3032 186.213 68.4783 186.26 68.6534C186.307 68.8284 186.355 69.0034 186.402 69.1737C186.553 69.7603 186.704 70.347 186.837 70.9526C186.884 71.1797 186.936 71.4068 186.988 71.6339C187.04 71.8609 187.092 72.088 187.139 72.3151C187.252 72.8639 187.366 73.4316 187.479 73.9994C187.527 74.2644 187.574 74.5246 187.621 74.7849C187.668 75.045 187.716 75.3052 187.763 75.5701C187.857 76.081 187.952 76.6109 188.027 77.1219C188.141 77.8765 188.235 78.631 188.329 79.3856L188.33 79.3928C188.406 79.9227 188.462 80.4525 188.519 80.9824C188.614 81.7772 188.689 82.5531 188.746 83.348C188.755 83.5561 188.769 83.7643 188.784 83.9725C188.798 84.1806 188.812 84.3888 188.821 84.597C188.84 84.9377 188.859 85.2831 188.878 85.6285C188.897 85.9738 188.916 86.3191 188.935 86.6597C188.954 87.076 188.973 87.4924 188.973 87.9087C189.01 88.6456 189.01 89.3635 189.01 90.1003V91.1637C189.01 92.2423 188.992 93.3021 188.954 94.3808C192.073 92.9425 195.419 92.072 198.822 91.7314C199.502 91.6746 200.183 91.6178 200.863 91.5989C202.224 91.5611 203.604 91.5989 204.965 91.7125C206.326 91.8449 207.688 92.0531 209.03 92.337C213.056 93.2075 216.894 94.835 220.258 97.2005C224.89 100.455 228.595 104.43 230.807 108.744C231.185 109.463 231.506 110.201 231.79 110.939C231.828 111.053 231.865 111.148 231.903 111.261L232.83 110.334C232.953 110.22 233.071 110.102 233.189 109.984C233.307 109.866 233.425 109.747 233.548 109.634C234.153 109.066 234.777 108.498 235.401 107.931C235.646 107.703 235.873 107.495 236.119 107.287C236.762 106.719 237.404 106.171 238.066 105.622C238.179 105.527 238.293 105.437 238.406 105.347C238.52 105.258 238.633 105.168 238.747 105.073C238.98 104.89 239.214 104.704 239.447 104.519C239.913 104.149 240.379 103.779 240.845 103.427C241.015 103.294 241.185 103.181 241.355 103.048C242.13 102.461 242.905 101.894 243.699 101.345C262.131 88.5521 285.382 83.329 308.275 90.3499C317.708 67.1677 341.054 50.3251 366.007 48.6787C390.96 47.0512 416.31 60.6956 428.692 82.4396C443.305 71.842 465.271 76.3081 477.899 89.2145C478.863 90.1985 479.77 91.2204 480.64 92.2802C480.753 91.9406 480.885 91.6011 481.017 91.2616L481.018 91.2583C481.207 90.7663 481.415 90.2742 481.623 89.7822C481.708 89.6019 481.794 89.4263 481.879 89.2507C481.964 89.0762 482.049 88.9017 482.133 88.7224C482.165 88.6542 482.197 88.585 482.229 88.5151C482.33 88.2942 482.434 88.0676 482.549 87.8519C482.738 87.4734 482.927 87.1139 483.135 86.7543C483.211 86.6313 483.282 86.5036 483.353 86.3759C483.424 86.2481 483.495 86.1204 483.57 85.9973C483.684 85.8171 483.797 85.6322 483.911 85.4472C484.024 85.2631 484.137 85.0791 484.251 84.8997C484.326 84.786 484.397 84.6723 484.468 84.5586C484.539 84.4452 484.61 84.3318 484.685 84.2185C484.931 83.84 485.177 83.4615 485.442 83.1019C485.526 82.9698 485.617 82.8453 485.707 82.7235C485.758 82.6535 485.809 82.5844 485.857 82.5153C486.141 82.1179 486.425 81.7583 486.727 81.3798C486.793 81.3043 486.854 81.2287 486.916 81.1531C486.977 81.0773 487.039 81.0015 487.105 80.9256C487.225 80.7855 487.343 80.6454 487.46 80.5062C487.674 80.2504 487.887 79.9974 488.107 79.7523C488.201 79.658 488.277 79.5819 488.353 79.4874C495.404 71.7285 505.48 67.4516 516.293 70.2713C518.939 70.9526 521.624 72.0312 524.308 73.6209C526.028 62.4556 531.548 51.4984 540.905 45.1967C550.263 38.8949 563.741 38.2893 572.513 45.3859C572.777 33.123 580.547 21.7684 590.982 15.3342C601.417 8.89996 614.139 6.93184 626.351 7.82128C639.81 8.78641 653.137 13.9717 663.213 23.0742C675.047 33.7853 677.108 47.9407 676.219 63.4964C678.828 62.9855 681.474 62.6259 684.14 62.4934C684.99 62.4556 685.822 62.4556 686.673 62.4556C686.824 62.4556 686.975 62.4603 687.127 62.465C687.278 62.4698 687.429 62.4745 687.58 62.4745C688.015 62.4934 688.45 62.5124 688.885 62.5502C689.376 62.5881 689.868 62.6259 690.359 62.6827C690.473 62.7016 690.591 62.7158 690.709 62.73C690.827 62.7442 690.945 62.7584 691.059 62.7773C691.701 62.8719 692.344 62.9855 692.987 63.1179C693.119 63.1369 693.27 63.1747 693.422 63.2125C694.121 63.3639 694.821 63.5532 695.52 63.7614C701.04 65.4835 705.161 69.0223 708.053 73.5641C711.569 79.0521 713.308 85.9973 713.649 92.9047C716.484 90.331 719.925 88.3629 723.554 87.2653C733.006 84.4266 743.29 86.4705 752.477 90.085C752.704 89.2334 752.988 88.4007 753.271 87.587L753.273 87.5826C753.348 87.357 753.423 87.1313 753.517 86.9057C753.763 86.2244 754.046 85.5621 754.33 84.9187C754.386 84.7673 754.462 84.597 754.538 84.4266C754.897 83.6507 755.275 82.8938 755.691 82.1368C755.823 81.8908 755.955 81.6637 756.088 81.4366C756.409 80.8878 756.731 80.339 757.071 79.8091C757.222 79.5631 757.373 79.3171 757.543 79.0711C757.997 78.3898 758.47 77.7274 758.961 77.0651C759.083 76.8948 759.212 76.7322 759.339 76.5725C759.41 76.4838 759.48 76.396 759.547 76.3081C759.675 76.1535 759.8 75.9989 759.925 75.8451C760.151 75.566 760.374 75.2897 760.606 75.0213L761.4 74.1129C761.738 73.7368 762.095 73.3608 762.451 72.9847L762.458 72.9775C762.931 72.4854 763.422 71.9934 763.914 71.5203C764.216 71.2175 764.538 70.9147 764.859 70.6119C765.073 70.4096 765.299 70.2139 765.527 70.017C765.683 69.8824 765.84 69.7472 765.993 69.6089L766.787 68.9277C767.733 68.1329 768.716 67.3759 769.718 66.6378C770.045 66.3981 770.373 66.1752 770.7 65.9524C770.864 65.8409 771.028 65.7295 771.192 65.6159C771.305 65.5406 771.413 65.47 771.521 65.3995C771.63 65.3281 771.74 65.2568 771.854 65.1807C776.561 62.096 781.778 59.6548 787.185 58.0462C796.826 55.1508 806.996 54.848 815.786 57.9895C825.692 61.5283 833.858 69.7603 837.677 79.4496C844.198 80.4147 850.512 82.7991 855.995 86.4326C856.089 86.2528 856.188 86.073 856.288 85.8932C856.387 85.7134 856.486 85.5337 856.581 85.3539C856.864 84.824 857.148 84.3131 857.45 83.8021C857.771 83.2344 858.112 82.6667 858.452 82.099C858.773 81.5691 859.095 81.0581 859.416 80.5282C859.585 80.274 859.755 80.0151 859.924 79.7562C860.095 79.4947 860.266 79.2332 860.437 78.9764C860.535 78.8263 860.632 78.6762 860.729 78.5265C860.985 78.1288 861.24 77.7339 861.515 77.349C861.675 77.1219 861.836 76.8996 861.996 76.6773C862.157 76.4549 862.318 76.2325 862.479 76.0053C862.602 75.8368 862.725 75.6667 862.849 75.4958C863.143 75.091 863.439 74.6824 863.745 74.2832C863.818 74.174 863.898 74.0726 863.977 73.974C864.021 73.9188 864.064 73.8644 864.104 73.8101C865.314 72.2205 866.6 70.6687 867.923 69.1737C868.017 69.0601 868.131 68.9277 868.244 68.7952L868.25 68.7889C868.853 68.1287 869.456 67.4685 870.078 66.8271C870.305 66.5811 870.532 66.3351 870.758 66.108C871.359 65.4874 871.979 64.8855 872.599 64.2837L872.611 64.2723C872.876 64.0452 873.121 63.7992 873.367 63.5532C874.006 62.9511 874.645 62.3678 875.284 61.7845L875.295 61.7743C875.541 61.5661 875.806 61.3391 876.052 61.112C876.713 60.5253 877.394 59.9576 878.074 59.3898C878.188 59.2949 878.307 59.2 878.425 59.1051C878.543 59.0107 878.661 58.9164 878.774 58.8221C879.511 58.2355 880.229 57.6677 880.967 57.1C881.051 57.034 881.141 56.968 881.23 56.9019C881.32 56.8355 881.411 56.769 881.496 56.7026C901.005 42.1309 926.26 35.867 951.1 43.4935C960.911 19.3651 985.202 1.84121 1011.16 0.138031C1037.13 -1.56515 1063.48 12.628 1076.38 35.2614C1091.57 24.2475 1114.43 28.9029 1127.57 42.3202C1130.18 44.9885 1132.43 47.9028 1134.39 51.0253C1135.3 52.4825 1136.15 53.9775 1136.92 55.5104C1137 55.6428 1137.08 55.7942 1137.15 55.9456C1137.47 56.5862 1137.77 57.2456 1138.07 57.905L1138.08 57.9138C1138.21 58.1976 1138.32 58.4815 1138.46 58.7653C1138.74 59.4088 1139 60.0522 1139.27 60.6956L1139.61 61.604C1139.69 61.8248 1139.77 62.0456 1139.86 62.2663C1140.03 62.7079 1140.19 63.1495 1140.35 63.591C1140.4 63.7614 1140.46 63.9128 1140.52 64.0831C1140.97 65.4267 1141.39 66.7892 1141.76 68.1707C1141.82 68.3604 1141.87 68.5559 1141.92 68.7508C1141.96 68.9059 1142.01 69.0606 1142.05 69.2115L1142.05 69.2205C1142.2 69.8041 1142.35 70.3879 1142.48 70.9904C1142.53 71.2175 1142.58 71.4446 1142.63 71.6717C1142.69 71.8988 1142.74 72.1259 1142.78 72.353C1142.9 72.9018 1143.01 73.4695 1143.12 74.0372C1143.19 74.3805 1143.25 74.7159 1143.31 75.0537C1143.34 75.2372 1143.38 75.4214 1143.41 75.6079C1143.5 76.1189 1143.6 76.6488 1143.67 77.1597C1143.79 77.9167 1143.88 78.6737 1143.98 79.4306C1144.05 79.9571 1144.11 80.4836 1144.16 81.0101L1144.16 81.0203C1144.26 81.8151 1144.33 82.591 1144.39 83.3858C1144.4 83.594 1144.42 83.8021 1144.43 84.0103C1144.44 84.2185 1144.46 84.4266 1144.47 84.6348L1144.52 85.6664C1144.54 86.0117 1144.56 86.357 1144.58 86.6975C1144.6 87.1139 1144.62 87.5302 1144.62 87.9465C1144.66 88.6822 1144.66 89.3991 1144.66 90.1347V91.2015C1144.66 92.2802 1144.64 93.34 1144.6 94.4186C1147.72 92.9804 1151.06 92.1099 1154.47 91.7692C1155.15 91.7125 1155.83 91.6557 1156.51 91.6368C1157.87 91.5989 1159.25 91.6368 1160.61 91.7503C1161.97 91.8828 1163.33 92.091 1164.68 92.3748C1168.7 93.2453 1172.54 94.8728 1175.9 97.2383C1180.54 100.493 1184.24 104.467 1186.45 108.782C1186.83 109.501 1187.15 110.239 1187.44 110.977C1187.47 111.091 1187.51 111.186 1187.55 111.299L1188.48 110.372C1188.6 110.258 1188.72 110.14 1188.83 110.022C1188.95 109.903 1189.07 109.785 1189.19 109.672C1189.8 109.104 1190.42 108.536 1191.05 107.968C1191.29 107.741 1191.52 107.533 1191.76 107.325C1192.41 106.757 1193.05 106.208 1193.71 105.66C1193.83 105.565 1193.94 105.475 1194.05 105.385C1194.17 105.295 1194.28 105.205 1194.39 105.111C1195.09 104.562 1195.79 103.994 1196.49 103.464C1196.58 103.398 1196.66 103.336 1196.75 103.275C1196.83 103.213 1196.92 103.152 1197 103.086C1197.78 102.499 1198.55 101.932 1199.34 101.383C1217.78 88.59 1241.03 83.3669 1263.92 90.3878C1273.35 67.2056 1296.7 50.363 1321.65 48.7166C1346.61 47.0891 1371.96 60.7335 1384.34 82.4774C1398.95 71.8799 1420.92 76.346 1433.54 89.2523C1434.51 90.2364 1435.42 91.2583 1436.29 92.318C1436.4 91.9774 1436.53 91.6368 1436.66 91.2961C1436.85 90.8104 1437.06 90.3246 1437.26 89.8389L1437.27 89.82C1437.44 89.4605 1437.61 89.1198 1437.78 88.7603C1437.81 88.6919 1437.84 88.6223 1437.88 88.5522C1437.98 88.3316 1438.08 88.1052 1438.19 87.8898C1438.38 87.5113 1438.57 87.1517 1438.78 86.7922C1438.86 86.6692 1438.93 86.5414 1439 86.4137C1439.07 86.286 1439.14 86.1582 1439.22 86.0352C1439.33 85.8545 1439.44 85.669 1439.56 85.4836C1439.67 85.3 1439.78 85.1165 1439.9 84.9376C1439.97 84.8241 1440.04 84.7105 1440.11 84.597C1440.18 84.4834 1440.26 84.3699 1440.33 84.2563C1440.58 83.8778 1440.82 83.4993 1441.09 83.1398C1441.22 82.9316 1441.37 82.7424 1441.5 82.5531C1441.79 82.1557 1442.07 81.7962 1442.37 81.4177C1442.51 81.2663 1442.62 81.1149 1442.75 80.9635C1443.09 80.5661 1443.41 80.1687 1443.75 79.7902C1443.85 79.6956 1443.92 79.6199 1444 79.5253C1451.05 71.7663 1461.13 67.4894 1471.94 70.3091C1474.58 70.9904 1477.27 72.0691 1479.95 73.6587C1481.67 62.4934 1487.19 51.5363 1496.55 45.2345C1505.91 38.9327 1519.39 38.3272 1528.16 45.4238C1528.42 33.1608 1536.19 21.8063 1546.63 15.372C1557.06 8.9378 1569.78 6.96968 1582 7.85912C1595.46 8.82426 1608.78 14.0095 1618.86 23.1121C1630.69 33.8232 1632.75 47.9785 1631.86 63.5343C1634.47 63.0233 1637.12 62.6637 1639.79 62.5313C1640.64 62.4934 1641.47 62.4934 1642.32 62.4934C1642.47 62.4934 1642.62 62.4982 1642.77 62.5029C1642.92 62.5076 1643.07 62.5124 1643.23 62.5124C1643.66 62.5313 1644.1 62.5502 1644.53 62.5881C1645.02 62.6259 1645.51 62.6637 1646 62.7205C1646.12 62.7394 1646.24 62.7536 1646.35 62.7678C1646.47 62.782 1646.59 62.7962 1646.7 62.8151C1647.35 62.9098 1647.99 63.0233 1648.63 63.1558C1648.76 63.1747 1648.92 63.2125 1649.07 63.2504C1649.77 63.4018 1650.47 63.591 1651.17 63.7992C1656.69 65.5213 1660.81 69.0601 1663.7 73.602C1667.22 79.09 1668.95 86.0352 1669.29 92.9425C1672.13 90.3688 1675.57 88.4007 1679.2 87.3031C1688.65 84.4645 1698.94 86.5083 1708.12 90.1228C1708.35 89.2712 1708.63 88.4386 1708.92 87.6248C1708.99 87.3977 1709.07 87.1706 1709.16 86.9436C1709.41 86.2623 1709.69 85.5999 1709.98 84.9565C1710.03 84.8051 1710.11 84.6348 1710.18 84.4645C1710.54 83.6886 1710.92 82.9316 1711.34 82.1746C1711.47 81.9286 1711.6 81.7015 1711.73 81.4744C1712.05 80.9256 1712.38 80.3768 1712.72 79.847C1712.87 79.6009 1713.02 79.3549 1713.19 79.1089C1713.64 78.4276 1714.12 77.7653 1714.61 77.1029C1714.8 76.838 1715 76.592 1715.19 76.346C1715.32 76.1895 1715.45 76.033 1715.57 75.8774C1715.8 75.6002 1716.02 75.3258 1716.25 75.0591L1717.05 74.1508C1717.39 73.7723 1717.74 73.3938 1718.1 73.0153C1718.58 72.5233 1719.07 72.0312 1719.56 71.5581C1719.86 71.2553 1720.18 70.9526 1720.5 70.6498C1720.72 70.4477 1720.94 70.2522 1721.17 70.0555C1721.33 69.9207 1721.49 69.7853 1721.64 69.6468L1722.43 68.9655C1723.38 68.1707 1724.36 67.4137 1725.36 66.6757C1725.69 66.4349 1726.02 66.2111 1726.35 65.9873C1726.51 65.8768 1726.68 65.7663 1726.84 65.6538C1727.06 65.5024 1727.27 65.3699 1727.5 65.2185C1732.21 62.1339 1737.42 59.6926 1742.83 58.0841C1752.47 55.1887 1762.64 54.8859 1771.43 58.0273C1781.34 61.5661 1789.5 69.7982 1793.32 79.4874C1799.84 80.4525 1806.16 82.837 1811.64 86.4705C1811.73 86.2906 1811.83 86.1108 1811.93 85.931C1812.03 85.7513 1812.13 85.5715 1812.23 85.3918C1812.51 84.8619 1812.79 84.3509 1813.1 83.84C1813.42 83.2723 1813.76 82.7045 1814.1 82.1368C1814.31 81.7939 1814.51 81.4589 1814.72 81.1216C1814.84 80.9377 1814.95 80.7531 1815.06 80.5661C1815.31 80.1897 1815.56 79.803 1815.81 79.4212C1815.9 79.2847 1815.99 79.1488 1816.08 79.0143C1816.44 78.4655 1816.78 77.9167 1817.16 77.3868C1817.32 77.1598 1817.48 76.9375 1817.64 76.7151C1817.8 76.4927 1817.96 76.2703 1818.12 76.0432C1818.25 75.8768 1818.37 75.7088 1818.49 75.5401C1818.79 75.1332 1819.08 74.7224 1819.39 74.3211C1819.46 74.2114 1819.54 74.1096 1819.62 74.0105C1819.67 73.9558 1819.71 73.9019 1819.75 73.848C1820.96 72.2583 1822.25 70.7066 1823.57 69.2115C1823.66 69.098 1823.78 68.9655 1823.89 68.8331C1824.49 68.1707 1825.1 67.5084 1825.72 66.8649C1825.95 66.6189 1826.18 66.3729 1826.4 66.1458C1827.01 65.5213 1827.63 64.9157 1828.26 64.3102C1828.52 64.0831 1828.77 63.837 1829.01 63.591C1829.66 62.9855 1830.3 62.3988 1830.94 61.8122C1831.19 61.604 1831.45 61.3769 1831.7 61.1498C1832.36 60.5632 1833.04 59.9954 1833.72 59.4277C1833.83 59.3331 1833.95 59.2385 1834.07 59.1438C1834.19 59.0492 1834.31 58.9546 1834.42 58.86C1835.16 58.2733 1835.88 57.7056 1836.61 57.1379C1836.7 57.0716 1836.79 57.0054 1836.88 56.9391C1836.97 56.8729 1837.06 56.8067 1837.14 56.7405C1856.65 42.1688 1881.91 35.9049 1906.75 43.5313C1916.56 19.4029 1940.85 1.87906 1966.8 0.17588C1992.78 -1.5273 2019.13 12.6659 2032.02 35.2993C2047.22 24.2854 2070.07 28.9407 2083.21 42.358C2085.82 45.0263 2088.07 47.9407 2090.04 51.0632C2090.94 52.5203 2091.8 54.0154 2092.57 55.5482C2092.61 55.6255 2092.66 55.7092 2092.7 55.7956C2092.73 55.8573 2092.77 55.9204 2092.8 55.9835C2093.12 56.6269 2093.42 57.2893 2093.72 57.9516C2093.79 58.0935 2093.85 58.2355 2093.91 58.3774C2093.97 58.5193 2094.04 58.6613 2094.1 58.8032C2094.39 59.4466 2094.65 60.09 2094.91 60.7335C2095.05 61.0363 2095.16 61.3391 2095.27 61.6418C2095.36 61.8645 2095.44 62.0872 2095.53 62.3098C2095.69 62.7495 2095.86 63.1892 2096.01 63.6289C2096.07 63.7992 2096.12 63.9506 2096.18 64.1209C2096.63 65.4645 2097.05 66.8271 2097.43 68.2086C2097.52 68.5492 2097.62 68.9088 2097.71 69.2494C2097.86 69.836 2098.01 70.4227 2098.15 71.0283C2098.19 71.2554 2098.25 71.4825 2098.3 71.7096C2098.35 71.9366 2098.4 72.1637 2098.45 72.3908C2098.5 72.6132 2098.54 72.8386 2098.59 73.0659C2098.65 73.3997 2098.72 73.7374 2098.79 74.0751C2098.87 74.4999 2098.94 74.9125 2099.02 75.3325L2099.07 75.6458C2099.17 76.1567 2099.26 76.6866 2099.34 77.1976C2099.45 77.9545 2099.55 78.7115 2099.64 79.4685C2099.71 79.9915 2099.77 80.5146 2099.83 81.0377L2099.83 81.0581C2099.92 81.8529 2100 82.6288 2100.06 83.4236C2100.07 83.6331 2100.08 83.8427 2100.09 84.0522C2100.11 84.259 2100.12 84.4658 2100.13 84.6726C2100.17 85.3539 2100.21 86.0541 2100.25 86.7354C2100.26 87.1517 2100.28 87.5681 2100.28 87.9844C2100.32 88.7224 2100.32 89.4416 2100.32 90.1796V91.2394C2100.32 92.318 2100.3 93.3778 2100.26 94.4565C2103.38 93.0182 2106.73 92.1477 2110.13 91.8071C2110.81 91.7503 2111.49 91.6935 2112.17 91.6746C2113.53 91.6368 2114.91 91.6746 2116.28 91.7882C2117.64 91.9206 2119 92.1288 2120.34 92.4127C2124.37 93.2832 2128.2 94.9107 2131.57 97.2762C2136.2 100.531 2139.91 104.505 2142.12 108.82C2142.5 109.539 2142.82 110.277 2143.1 111.015C2143.12 111.071 2143.14 111.122 2143.16 111.173C2143.18 111.226 2143.19 111.279 2143.21 111.337L2144.14 110.41C2144.39 110.183 2144.61 109.937 2144.86 109.709C2145.46 109.142 2146.09 108.574 2146.71 108.006C2146.96 107.779 2147.18 107.571 2147.43 107.363C2148.07 106.795 2148.71 106.246 2149.38 105.697C2149.6 105.508 2149.83 105.338 2150.06 105.149C2150.29 104.966 2150.52 104.781 2150.76 104.596C2151.22 104.226 2151.69 103.855 2152.16 103.502C2152.24 103.436 2152.33 103.375 2152.41 103.313C2152.5 103.252 2152.58 103.19 2152.67 103.124C2153.44 102.537 2154.22 101.969 2155.01 101.421C2173.44 88.6278 2196.69 83.4047 2219.58 90.4256C2229.02 67.2434 2252.36 50.4008 2277.32 48.7544C2302.27 47.1269 2327.62 60.7713 2340 82.5153C2354.61 71.9177 2376.58 76.3838 2389.21 89.2902C2392.9 93.0372 2395.86 97.333 2398.23 101.95C2398.3 102.083 2398.38 102.215 2398.45 102.367C2398.76 102.991 2399.06 103.616 2399.34 104.259C2399.46 104.524 2399.59 104.808 2399.7 105.073C2399.97 105.679 2400.23 106.303 2400.48 106.928C2400.59 107.23 2400.7 107.514 2400.82 107.798C2400.97 108.2 2401.13 108.61 2401.29 109.022C2401.37 109.251 2401.45 109.48 2401.53 109.709C2401.56 109.787 2401.59 109.865 2401.61 109.943C2401.64 110.016 2401.66 110.09 2401.69 110.164C2402.14 111.469 2402.54 112.775 2402.9 114.1C2402.99 114.407 2403.08 114.732 2403.17 115.058L2403.18 115.103C2403.33 115.671 2403.46 116.257 2403.59 116.825C2403.71 117.26 2403.8 117.695 2403.9 118.131C2403.99 118.513 2404.06 118.885 2404.14 119.261C2404.17 119.426 2404.2 119.591 2404.24 119.758C2404.29 120.004 2404.33 120.255 2404.37 120.506C2404.41 120.756 2404.46 121.007 2404.5 121.253C2404.58 121.745 2404.67 122.256 2404.75 122.748C2404.86 123.486 2404.96 124.205 2405.05 124.943L2405.22 126.476L2405.23 126.532C2405.3 127.271 2405.37 128.009 2405.43 128.747C2405.44 128.987 2405.46 129.228 2405.48 129.468C2405.49 129.625 2405.5 129.782 2405.5 129.939C2405.56 130.602 2405.6 131.264 2405.62 131.926C2405.64 132.324 2405.66 132.721 2405.66 133.119C2405.69 133.833 2405.69 134.529 2405.69 135.225V136.241C2405.69 137.282 2405.67 138.323 2405.64 139.345C2408.62 137.963 2411.84 137.112 2415.11 136.79C2416.43 136.658 2417.74 136.62 2419.06 136.658C2420.38 136.695 2421.69 136.809 2422.99 137.017C2423.65 137.112 2424.29 137.244 2424.94 137.377C2426.05 137.623 2427.17 137.925 2428.26 138.304C2430.91 139.212 2433.43 140.442 2435.71 142.051C2440.16 145.173 2443.71 148.977 2445.85 153.141C2446.2 153.822 2446.53 154.522 2446.79 155.241Z" fill="black"/>
</svg>
