<svg width="30" height="30" viewBox="0 0 30 30" fill="none" xmlns="http://www.w3.org/2000/svg">
<path d="M10.875 15.75C10.875 11.8406 6.90938 7.875 3 7.875C6.90938 7.875 10.875 3.90938 10.875 0C10.875 3.90938 14.8406 7.875 18.75 7.875C14.8406 7.875 10.875 11.8406 10.875 15.75Z" fill="#077CEA"/>
<path d="M10.875 15.75C10.875 11.8406 6.90938 7.875 3 7.875C6.90938 7.875 10.875 3.90938 10.875 0C10.875 3.90938 14.8406 7.875 18.75 7.875C14.8406 7.875 10.875 11.8406 10.875 15.75Z" fill="#077CEA"/>
<path d="M19.5 30C19.5 24.792 14.208 19.5 9 19.5C14.208 19.5 19.5 14.208 19.5 9C19.5 14.208 24.792 19.5 30 19.5C24.792 19.5 19.5 24.792 19.5 30Z" fill="#077CEA"/>
<path d="M19.5 30C19.5 24.792 14.208 19.5 9 19.5C14.208 19.5 19.5 14.208 19.5 9C19.5 14.208 24.792 19.5 30 19.5C24.792 19.5 19.5 24.792 19.5 30Z" fill="#077CEA"/>
<path d="M5.25 28.5C5.25 25.8975 2.6025 23.25 0 23.25C2.6025 23.25 5.25 20.6025 5.25 18C5.25 20.6025 7.8975 23.25 10.5 23.25C7.8975 23.25 5.25 25.8975 5.25 28.5Z" fill="#077CEA"/>
</svg>
