<svg width="533" height="181" viewBox="0 0 533 181" fill="none" xmlns="http://www.w3.org/2000/svg">
<path d="M533 24.3331V191H-1V13.1673C-0.425998 13.1477 0.152952 13.1379 0.736851 13.1379C25.6565 13.1379 46.6719 39.6609 53.3125 62.2524C72.6059 37.2766 102.974 21.1755 137.141 21.1755C167.5 21.1755 219 36.4554 238.408 76.2647C249.779 60.4531 268.41 50.141 289.475 50.141C302.593 50.141 314.77 54.1295 324.835 60.9584C327.799 52.5988 335.83 46.5891 345.282 46.5891C347.528 46.5891 349.695 46.9374 351.744 47.5654C351.734 47.1337 351.724 46.702 351.724 46.2801C351.724 15.2014 382.5 0 408.486 0C432.797 0 453.54 15.1591 461.631 36.4554C465.772 25.5644 476.382 17.8132 488.817 17.8132C502.048 17.8132 513.202 26.58 516.725 38.5748C521.149 32.8448 526.681 27.9929 533 24.3331Z" fill="black"/>
</svg>