<svg width="163" height="139" viewBox="0 0 163 139" fill="none" xmlns="http://www.w3.org/2000/svg">
<g clip-path="url(#clip0_250_167)">
<path d="M23.8989 103.225C8.55046 81.3824 13.8044 51.2312 35.6474 35.8828C57.4729 20.5305 87.6309 25.795 102.983 47.6206C118.332 69.4636 113.078 99.6148 91.2415 114.974C69.3985 130.322 39.2473 125.068 23.8989 103.225Z" fill="black"/>
<path d="M-17.9878 120.558C-29.2938 104.482 -25.4206 82.281 -9.34484 70.9751C6.73096 59.6692 28.9323 63.5423 40.2276 79.6249C51.5335 95.7007 47.6604 117.902 31.5778 129.197C15.5088 140.514 -6.68192 136.634 -17.9878 120.558Z" fill="black"/>
<path d="M68.1762 59.9889C56.8703 43.9131 60.7434 21.7117 76.8192 10.4058C92.895 -0.900156 115.096 2.97298 126.392 19.0555C137.698 35.1313 133.824 57.3327 117.742 68.628C101.673 79.9445 79.4715 76.0714 68.1762 59.9889Z" fill="black"/>
<path d="M-73.3551 133.55C-86.391 115.003 -81.9215 89.4088 -63.392 76.369C-44.8451 63.333 -19.2507 67.8026 -6.21478 86.3495C6.8144 104.886 2.3516 130.491 -16.1779 143.531C-34.7141 156.56 -60.3152 152.08 -73.3551 133.55Z" fill="black"/>
<path d="M85.6237 21.7824C72.5878 3.23549 77.0574 -22.3589 95.5869 -35.3987C114.123 -48.4279 139.735 -43.9544 152.764 -25.4182C165.793 -6.88192 161.33 18.7231 142.794 31.7523C124.254 44.7988 98.6597 40.3293 85.6237 21.7824Z" fill="black"/>
<path d="M4.81364 75.9139C-10.4283 54.0034 -5.02455 23.8767 16.8859 8.63478C38.7964 -6.60712 68.9232 -1.20341 84.1651 20.7071C99.407 42.6176 94.0032 72.7443 72.0928 87.9862C50.1823 103.228 20.0662 97.8176 4.81364 75.9139Z" fill="black"/>
<path d="M-37.1441 93.0367C-48.3648 76.9069 -44.3873 54.7289 -28.2643 43.4975C-12.1345 32.2768 10.0435 36.2543 21.2709 52.3948C32.4917 68.5246 28.5141 90.7025 12.3843 101.923C-3.75609 113.151 -25.9234 109.166 -37.1441 93.0367Z" fill="black"/>
<path d="M49.3062 32.8985C38.0855 16.7687 42.063 -5.40922 58.1861 -16.6406C74.3159 -27.8613 96.4938 -23.8838 107.715 -7.75401C118.953 8.37967 114.975 30.5576 98.8347 41.7851C82.7049 53.0058 60.5269 49.0283 49.3062 32.8985Z" fill="black"/>
<path d="M66.9403 -5.23076C54.0002 -23.8384 58.5848 -49.4161 77.1925 -62.3561C95.8001 -75.2962 121.378 -70.7116 134.318 -52.104C147.258 -33.4964 142.673 -7.9187 124.066 5.02138C105.465 17.9721 79.8804 13.3769 66.9403 -5.23076Z" fill="black"/>
</g>
<defs>
<clipPath id="clip0_250_167">
<rect width="277.539" height="157.398" fill="white" transform="translate(198.684 46.9531) rotate(147.639)"/>
</clipPath>
</defs>
</svg>
