<svg width="420" height="134" viewBox="0 0 420 134" fill="none" xmlns="http://www.w3.org/2000/svg">
<g opacity="0.07" clip-path="url(#clip0_265_212)">
<path d="M417.198 45.4963C393.494 45.4963 373.817 62.7095 369.923 85.3268C360.507 75.4007 347.219 69.2056 332.469 69.2056C303.956 69.2056 280.839 92.3339 280.804 120.88C276.47 117.611 271.081 115.672 265.237 115.672C255.297 115.672 246.671 121.279 242.33 129.504C239.394 97.6469 212.642 72.7057 180.068 72.7057C151.841 72.7057 127.99 91.4309 120.21 117.156C115.562 111.829 108.725 108.462 101.106 108.462C94.5697 108.462 88.614 110.94 84.1123 115.007C74.8572 100.02 58.3042 90.0239 39.4165 90.0239C36.8791 90.0239 34.3835 90.2129 31.937 90.5559C32.608 87.5038 32.9645 84.3328 32.9645 81.0778C32.9645 59.1535 16.9498 40.9883 -4 37.6562V157.708H424V45.9863C421.777 45.6643 419.505 45.4963 417.198 45.4963Z" fill="#077CEA"/>
<path d="M86.5732 96.3377C92.7039 96.3377 97.6737 91.3609 97.6737 85.2216C97.6737 79.0823 92.7039 74.1055 86.5732 74.1055C80.4425 74.1055 75.4727 79.0823 75.4727 85.2216C75.4727 91.3609 80.4425 96.3377 86.5732 96.3377Z" fill="#077CEA"/>
<path d="M393.959 35.033C396.897 32.0915 396.897 27.3225 393.959 24.3811C391.022 21.4397 386.26 21.4397 383.322 24.3811C380.385 27.3225 380.385 32.0915 383.322 35.033C386.26 37.9744 391.022 37.9744 393.959 35.033Z" fill="#077CEA"/>
<path d="M351.498 63.5005C360.817 63.5005 368.372 55.9349 368.372 46.6023C368.372 37.2697 360.817 29.7041 351.498 29.7041C342.178 29.7041 334.623 37.2697 334.623 46.6023C334.623 55.9349 342.178 63.5005 351.498 63.5005Z" stroke="#077CEA" stroke-width="2" stroke-miterlimit="10"/>
<path d="M34.6256 57.4456C36.5657 50.3095 32.3616 42.9495 25.2355 41.0067C18.1094 39.0638 10.7597 43.2738 8.81956 50.4099C6.87943 57.5461 11.0835 64.9061 18.2097 66.8489C25.3358 68.7918 32.6855 64.5818 34.6256 57.4456Z" stroke="#077CEA" stroke-width="2" stroke-miterlimit="10"/>
<path d="M77.4793 83.4711C81.6758 83.4711 85.0777 80.0644 85.0777 75.862C85.0777 71.6596 81.6758 68.2529 77.4793 68.2529C73.2828 68.2529 69.8809 71.6596 69.8809 75.862C69.8809 80.0644 73.2828 83.4711 77.4793 83.4711Z" stroke="#077CEA" stroke-width="2" stroke-miterlimit="10"/>
<path d="M328.249 117.848C328.249 104.009 317.043 92.7949 303.224 92.7949C292.689 92.7949 283.686 99.312 279.995 108.538C274.948 105.759 269.153 104.17 262.981 104.17C249.468 104.17 237.739 111.772 231.79 122.93C228.148 119.388 223.178 117.204 217.698 117.204C212.839 117.204 208.387 118.919 204.899 121.775C200.593 116.112 193.791 112.458 186.137 112.458C175.735 112.458 166.92 119.206 163.789 128.565C162.16 126.808 159.846 125.695 157.26 125.695C154.016 125.695 151.185 127.438 149.626 130.028C145.293 121.131 136.17 114.999 125.615 114.999C110.865 114.999 98.9121 126.969 98.9121 141.74H197.908H237.473C237.48 141.698 237.487 141.655 237.501 141.613H328.249V117.848Z" fill="#077CEA"/>
<path opacity="0.2" d="M302.427 133.668C311.905 133.668 319.588 125.974 319.588 116.483C319.588 106.992 311.905 99.2979 302.427 99.2979C292.949 99.2979 285.266 106.992 285.266 116.483C285.266 125.974 292.949 133.668 302.427 133.668Z" fill="#077CEA"/>
<path d="M346.368 123.89C358.011 123.89 367.45 114.437 367.45 102.777C367.45 91.1173 358.011 81.665 346.368 81.665C334.724 81.665 325.285 91.1173 325.285 102.777C325.285 114.437 334.724 123.89 346.368 123.89Z" fill="#077CEA"/>
<path d="M28.827 128.734C35.1507 128.734 40.2771 123.6 40.2771 117.268C40.2771 110.935 35.1507 105.802 28.827 105.802C22.5033 105.802 17.377 110.935 17.377 117.268C17.377 123.6 22.5033 128.734 28.827 128.734Z" fill="#077CEA"/>
<path opacity="0.2" d="M101.12 152.639C111.929 152.639 120.692 143.864 120.692 133.039C120.692 122.214 111.929 113.438 101.12 113.438C90.3099 113.438 81.5469 122.214 81.5469 133.039C81.5469 143.864 90.3099 152.639 101.12 152.639Z" fill="#077CEA"/>
<path d="M64.3917 24.9737C66.0511 14.7349 59.1077 5.08767 48.8833 3.42599C38.6589 1.7643 29.0252 8.7174 27.3659 18.9562C25.7065 29.195 32.6498 38.8422 42.8743 40.5039C53.0987 42.1656 62.7324 35.2125 64.3917 24.9737Z" fill="#077CEA"/>
</g>
<defs>
<clipPath id="clip0_265_212">
<rect width="420" height="134" fill="white"/>
</clipPath>
</defs>
</svg>
