<svg width="418" height="43" viewBox="0 0 418 43" fill="none" xmlns="http://www.w3.org/2000/svg">
<g clip-path="url(#clip0_325_551)">
<path d="M738.567 -12.8653C738.81 -13.5055 738.959 -14.1661 739 -14.8266L738.953 -14.9152C739.061 -16.6381 738.431 -18.4224 736.82 -20.0977C733.871 -23.1642 729.2 -23.887 724.987 -24.539C724.091 -24.6776 723.216 -24.8129 722.383 -24.9669C714.589 -26.4106 706.674 -26.758 698.765 -26.5537C692.61 -26.397 686.461 -25.8999 680.36 -25.321C678.058 -25.1031 675.6 -24.783 673.399 -24.0339C673.122 -23.9454 672.851 -23.8432 672.587 -23.7343C672.059 -23.5163 671.544 -23.2712 671.056 -22.992C669.838 -22.2905 668.775 -21.378 667.975 -20.1658C664.285 -24.8307 658.543 -27.5139 652.713 -28.6035C652.347 -28.6716 651.982 -28.7397 651.616 -28.7942C649.056 -29.1892 646.463 -29.3322 643.869 -29.3322C642.387 -29.3322 640.897 -29.2845 639.414 -29.2096C637.931 -29.1347 636.441 -29.0393 634.965 -28.9304C634.59 -28.9077 634.215 -28.8789 633.841 -28.8501C633.653 -28.8358 633.466 -28.8214 633.279 -28.8078C633.137 -28.7976 632.997 -28.7857 632.856 -28.7738C632.716 -28.7618 632.575 -28.7499 632.433 -28.7397C627.916 -28.3651 623.339 -27.7931 619.073 -26.4992C618.538 -26.3425 618.01 -26.1655 617.488 -25.9816C616.967 -25.7977 616.446 -25.6002 615.938 -25.3891C615.789 -25.3246 615.639 -25.2601 615.488 -25.1955C615.385 -25.1511 615.282 -25.1067 615.179 -25.0622C613.162 -24.1633 611.259 -23.0464 609.505 -21.6368C608.984 -21.2145 608.469 -20.7582 608.022 -20.2543H601.027L581.248 -20.2271C582.338 -20.3292 583.483 -20.4518 584.404 -21.0511C584.465 -21.0851 584.519 -21.126 584.573 -21.1669C584.681 -21.2554 584.79 -21.3439 584.884 -21.4461C584.979 -21.5414 585.074 -21.6504 585.155 -21.7661C585.44 -22.1611 585.629 -22.631 585.643 -23.0941C585.65 -23.3597 585.609 -23.6253 585.494 -23.8773C585.128 -24.6945 584.268 -25.0554 583.361 -25.2461C583.063 -25.3074 582.752 -25.3483 582.46 -25.3823C579.765 -25.682 577.064 -25.8999 574.355 -26.0361C572.554 -26.1246 570.746 -26.1859 568.938 -26.22C567.13 -26.254 565.322 -26.2608 563.514 -26.2404C561.706 -26.2268 559.891 -26.1859 558.084 -26.1246C556.276 -26.0633 554.461 -25.9884 552.653 -25.8999C551.724 -25.8546 550.797 -25.8057 549.871 -25.7542V-165H-138.229V-25.4943C-140.004 -25.3847 -141.781 -25.2675 -143.557 -25.1504C-144.211 -25.1072 -144.865 -25.0641 -145.519 -25.0214L-161.141 -23.9794C-162.021 -23.925 -162.962 -23.816 -163.869 -23.6117C-164.045 -23.5708 -164.228 -23.5232 -164.404 -23.4755C-164.56 -23.4278 -164.716 -23.3801 -164.865 -23.3325C-167.011 -24.2178 -169.307 -24.7217 -171.623 -24.7966C-171.534 -24.8329 -171.449 -24.8715 -171.364 -24.9098C-171.305 -24.9361 -171.247 -24.9623 -171.189 -24.9873L-171.887 -24.8103C-174.588 -24.8579 -177.283 -24.3063 -179.775 -23.2508C-179.978 -23.169 -180.168 -23.0805 -180.364 -22.992C-182.491 -22.0113 -184.447 -20.6629 -186.1 -18.9944C-186.343 -18.7425 -186.587 -18.4905 -186.817 -18.2249C-188.578 -19.6822 -190.63 -20.7719 -192.817 -21.4324C-193.365 -21.5959 -193.914 -21.7389 -194.476 -21.8479C-195.058 -21.9636 -195.64 -22.0454 -196.23 -22.0998C-197.34 -22.202 -198.471 -22.202 -199.581 -22.0794C-200.556 -21.9705 -201.518 -21.773 -202.459 -21.5006C-203.509 -21.9092 -204.592 -22.236 -205.689 -22.4812C-209.874 -23.4074 -214.295 -23.1282 -218.365 -21.7866C-218.812 -21.6368 -219.266 -21.4801 -219.706 -21.3031C-221.033 -20.7787 -222.313 -20.1385 -223.532 -19.3894C-224.75 -18.6403 -225.895 -17.7754 -226.958 -16.8152C-225.902 -17.7754 -234.833 -22.8694 -235.686 -23.1554C-236.133 -23.3052 -236.587 -23.4551 -237.034 -23.5981C-239.058 -24.2518 -241.11 -24.8375 -243.196 -24.9533C-243.656 -24.9737 -244.123 -24.9805 -244.59 -24.9533C-245.058 -24.926 -245.525 -24.8715 -245.999 -24.7898C-246.236 -24.749 -246.473 -24.7013 -246.71 -24.64C-250.8 -23.6321 -254.341 -20.8808 -256.813 -17.4553C-265.419 -24.3948 -278.989 -24.0884 -287.277 -16.7675C-288.53 -17.8027 -289.904 -18.6675 -291.36 -19.3622C-291.942 -19.6414 -292.538 -19.8866 -293.141 -20.1113C-293.744 -20.336 -294.36 -20.5335 -294.983 -20.697C-300.596 -22.1952 -306.846 -21.4801 -311.891 -18.6063C-313.286 -17.8095 -314.599 -16.8492 -315.771 -15.7188C-316.942 -16.1887 -318.222 -16.5564 -319.502 -16.713C-320.355 -16.8152 -321.201 -16.8288 -322.014 -16.713C-322.217 -16.6858 -322.42 -16.6518 -322.617 -16.6041C-323.118 -16.4883 -323.592 -16.3181 -324.038 -16.0933C-324.492 -15.8686 -324.919 -15.5894 -325.305 -15.2352C-325.846 -14.7381 -326.259 -14.1184 -326.544 -13.4442C-326.943 -12.5044 -327.086 -11.4488 -326.95 -10.4409C-326.948 -10.4264 -326.944 -10.4127 -326.941 -10.3992C-326.935 -10.3749 -326.93 -10.3515 -326.93 -10.3252C-326.808 -9.55562 -326.537 -8.81331 -326.09 -8.17316C-325.447 -7.24018 -324.492 -6.57279 -323.429 -6.21185C-322.061 -5.74876 -320.517 -5.80325 -319.231 -6.47063C-319.454 -5.58532 -319.515 -4.65915 -319.434 -3.7534C-319.251 -1.75804 -318.357 0.182839 -316.901 1.55848C-315.886 2.5119 -314.62 3.17929 -313.272 3.51298C-311.803 3.87392 -310.232 3.84668 -308.789 3.38359C-308.823 3.64919 -308.844 3.90797 -308.864 4.17356C-308.877 4.26209 -308.877 4.35063 -308.877 4.43916C-308.884 4.61622 -308.891 4.79328 -308.891 4.97035V5.28361C-308.891 5.44079 -308.885 5.59167 -308.878 5.74836L-308.877 5.76713C-308.874 5.82757 -308.869 5.88616 -308.863 5.94385C-308.858 5.99667 -308.854 6.04875 -308.85 6.10082C-308.837 6.25745 -308.823 6.41409 -308.803 6.56391C-308.799 6.63944 -308.788 6.71206 -308.778 6.78557C-308.773 6.82475 -308.767 6.86417 -308.762 6.90442C-308.749 6.97932 -308.737 7.05423 -308.725 7.12914C-308.713 7.20406 -308.701 7.27897 -308.688 7.35388C-308.678 7.41178 -308.668 7.46798 -308.657 7.52417C-308.647 7.58035 -308.637 7.63652 -308.627 7.69439C-308.6 7.84421 -308.566 7.99404 -308.532 8.13705C-308.519 8.1915 -308.505 8.24766 -308.492 8.30382C-308.478 8.36003 -308.464 8.41624 -308.451 8.47074C-308.427 8.57193 -308.396 8.67654 -308.366 8.77973C-308.353 8.82237 -308.341 8.86477 -308.329 8.90659C-308.312 8.96108 -308.297 9.01386 -308.282 9.06665C-308.266 9.11942 -308.251 9.17219 -308.234 9.22666C-308.187 9.37649 -308.133 9.53312 -308.078 9.68294C-308.024 9.83276 -307.97 9.97578 -307.909 10.1256C-307.841 10.3027 -307.767 10.4797 -307.692 10.6568C-307.662 10.7215 -307.632 10.7845 -307.601 10.8474C-307.571 10.9104 -307.54 10.9734 -307.51 11.0382C-307.498 11.0626 -307.487 11.0875 -307.476 11.1125C-307.439 11.1921 -307.402 11.2737 -307.361 11.3514C-307.293 11.4876 -307.225 11.617 -307.151 11.7464C-307.124 11.7907 -307.098 11.8366 -307.073 11.8826C-307.048 11.9286 -307.022 11.9745 -306.995 12.0188C-306.954 12.0835 -306.914 12.1499 -306.873 12.2163C-306.833 12.2827 -306.792 12.3491 -306.751 12.4138C-306.724 12.4547 -306.699 12.4955 -306.673 12.5364C-306.648 12.5772 -306.623 12.6181 -306.596 12.659C-306.507 12.7952 -306.419 12.9314 -306.325 13.0608C-306.295 13.1083 -306.262 13.1531 -306.23 13.1969C-306.211 13.2221 -306.193 13.247 -306.176 13.2719C-306.074 13.4149 -305.973 13.5443 -305.864 13.6805C-305.841 13.7077 -305.819 13.7349 -305.797 13.7622C-305.775 13.7894 -305.752 13.8167 -305.729 13.8439C-305.686 13.8943 -305.644 13.9446 -305.602 13.9947C-305.525 14.0868 -305.449 14.1779 -305.37 14.2661C-305.336 14.3002 -305.309 14.3274 -305.282 14.3615C-302.756 17.1536 -299.147 18.6927 -295.274 17.678C-294.326 17.4328 -293.364 17.0447 -292.403 16.4726C-291.787 20.4906 -289.809 24.4336 -286.458 26.7014C-283.106 28.9692 -278.278 29.1871 -275.136 26.6333C-275.041 31.0463 -272.258 35.1323 -268.52 37.4478C-264.783 39.7632 -260.225 40.4714 -255.851 40.1514C-251.03 39.8041 -246.256 37.9381 -242.647 34.6624C-238.408 30.8079 -237.67 25.7139 -237.988 20.116C-237.054 20.2999 -236.106 20.4293 -235.151 20.477C-234.846 20.4906 -234.549 20.4906 -234.244 20.4906C-234.19 20.4906 -234.135 20.4889 -234.081 20.4872C-234.027 20.4855 -233.973 20.4838 -233.919 20.4838C-233.763 20.477 -233.607 20.4702 -233.452 20.4565C-233.276 20.4429 -233.099 20.4293 -232.923 20.4089C-232.883 20.4021 -232.84 20.3969 -232.798 20.3918C-232.756 20.3867 -232.714 20.3816 -232.673 20.3748C-232.443 20.3408 -232.212 20.2999 -231.982 20.2522C-231.935 20.2454 -231.881 20.2318 -231.826 20.2182C-231.576 20.1637 -231.325 20.0956 -231.075 20.0207C-229.098 19.401 -227.621 18.1275 -226.585 16.4931C-225.326 14.5181 -224.703 12.0188 -224.581 9.53312C-223.565 10.4593 -222.333 11.1675 -221.033 11.5625C-217.647 12.584 -213.964 11.8486 -210.673 10.5478C-210.592 10.8543 -210.49 11.1539 -210.388 11.4468C-210.361 11.5285 -210.334 11.6102 -210.3 11.6919C-210.212 11.9371 -210.111 12.1754 -210.009 12.407C-209.989 12.4615 -209.962 12.5228 -209.935 12.584C-209.806 12.8633 -209.671 13.1357 -209.522 13.4081C-209.474 13.4966 -209.427 13.5783 -209.379 13.66C-209.264 13.8575 -209.149 14.055 -209.027 14.2457L-209.027 14.2461C-208.973 14.3345 -208.919 14.4229 -208.858 14.5113C-208.696 14.7565 -208.526 14.9948 -208.35 15.2332C-208.307 15.2944 -208.26 15.3529 -208.215 15.4103C-208.19 15.4423 -208.165 15.4739 -208.14 15.5056C-208.095 15.5613 -208.05 15.617 -208.005 15.6724C-207.924 15.7728 -207.844 15.8721 -207.761 15.9687L-207.477 16.2956C-207.355 16.4317 -207.226 16.5679 -207.098 16.704C-206.928 16.8811 -206.752 17.0583 -206.576 17.2285C-206.468 17.3373 -206.353 17.4461 -206.238 17.5549L-206.238 17.5554C-206.161 17.6282 -206.08 17.6986 -205.998 17.7695C-205.942 17.8179 -205.886 17.8666 -205.831 17.9164L-205.547 18.1615C-205.208 18.4476 -204.856 18.72 -204.497 18.9856C-204.38 19.0718 -204.263 19.1521 -204.145 19.2323C-204.087 19.2724 -204.028 19.3125 -203.969 19.3533C-203.929 19.3806 -203.89 19.4061 -203.851 19.4317C-203.812 19.4572 -203.773 19.4827 -203.732 19.5099C-202.046 20.62 -200.177 21.4985 -198.241 22.0773C-194.787 23.1193 -191.144 23.2283 -187.996 22.0978C-184.447 20.8243 -181.522 17.8619 -180.154 14.3751C-177.818 14.0278 -175.557 13.1697 -173.593 11.8622C-173.559 11.9269 -173.524 11.9916 -173.488 12.0563C-173.452 12.121 -173.417 12.1857 -173.383 12.2504C-173.282 12.441 -173.18 12.6249 -173.072 12.8088C-172.956 13.0131 -172.835 13.2174 -172.713 13.4217C-172.655 13.5169 -172.598 13.6105 -172.54 13.704C-172.483 13.7977 -172.425 13.8915 -172.367 13.9869C-172.306 14.0789 -172.245 14.1725 -172.185 14.2661C-172.124 14.3598 -172.063 14.4534 -172.002 14.5454C-171.966 14.5995 -171.932 14.6537 -171.897 14.7078C-171.805 14.8507 -171.714 14.9927 -171.616 15.131C-171.558 15.2126 -171.501 15.2926 -171.443 15.3725C-171.386 15.4526 -171.328 15.5327 -171.27 15.6145C-171.226 15.6751 -171.182 15.7362 -171.138 15.7975C-171.033 15.9433 -170.926 16.0905 -170.817 16.2343C-170.791 16.2736 -170.762 16.3101 -170.734 16.3457C-170.718 16.3655 -170.703 16.385 -170.688 16.4045C-170.255 16.9766 -169.794 17.535 -169.32 18.073C-169.286 18.1139 -169.246 18.1615 -169.205 18.2092L-169.205 18.2095C-168.988 18.4478 -168.772 18.686 -168.548 18.9174C-168.467 19.006 -168.386 19.0945 -168.305 19.1762C-168.088 19.401 -167.864 19.6189 -167.641 19.8368C-167.546 19.9185 -167.458 20.0069 -167.37 20.0954C-167.14 20.3133 -166.91 20.5246 -166.679 20.7358C-166.591 20.8107 -166.497 20.8924 -166.409 20.9741C-166.172 21.1852 -165.928 21.3895 -165.684 21.5938C-165.643 21.6279 -165.601 21.6619 -165.559 21.696C-165.516 21.73 -165.474 21.7641 -165.434 21.7981C-165.169 22.0092 -164.912 22.2135 -164.648 22.4178C-164.618 22.4417 -164.585 22.4655 -164.553 22.4894C-164.521 22.5132 -164.489 22.537 -164.458 22.5609C-157.47 27.8046 -148.424 30.0588 -139.526 27.3143C-136.012 35.9972 -127.311 42.3034 -118.014 42.9163C-108.717 43.5292 -99.2708 38.4216 -94.6324 30.3244C-89.1883 34.2879 -81.0018 32.6126 -76.2957 27.7842C-75.3612 26.824 -74.5554 25.7752 -73.8512 24.6516C-73.5262 24.1272 -73.2215 23.5892 -72.9439 23.0376C-72.9169 22.9902 -72.8901 22.9361 -72.8631 22.882L-72.8626 22.8809C-72.7475 22.6494 -72.6392 22.411 -72.5308 22.1727C-72.5071 22.1216 -72.4851 22.0705 -72.4631 22.0195C-72.4411 21.9684 -72.4191 21.9173 -72.3954 21.8662C-72.2938 21.6347 -72.199 21.4031 -72.1042 21.1716C-72.057 21.063 -72.0165 20.9544 -71.976 20.8458L-71.9756 20.8447C-71.9462 20.7653 -71.9161 20.6858 -71.886 20.6064C-71.8258 20.4475 -71.7657 20.2886 -71.7115 20.1297C-71.6912 20.0684 -71.6709 20.0139 -71.6505 19.9526C-71.488 19.4691 -71.3391 18.9787 -71.2037 18.4816C-71.1867 18.4203 -71.1698 18.3573 -71.1528 18.2943C-71.1359 18.2313 -71.119 18.1683 -71.1021 18.107C-71.0479 17.8959 -70.9937 17.6848 -70.9463 17.4669C-70.9294 17.3852 -70.9108 17.3034 -70.8922 17.2217C-70.8735 17.14 -70.8549 17.0583 -70.838 16.9766C-70.7974 16.7791 -70.7567 16.5748 -70.7161 16.3705C-70.6992 16.2751 -70.6822 16.1815 -70.6653 16.0878C-70.6484 15.9942 -70.6314 15.9006 -70.6145 15.8052C-70.5807 15.6214 -70.5468 15.4307 -70.5197 15.2468C-70.4792 14.9753 -70.4455 14.7037 -70.4117 14.4322L-70.4114 14.4296C-70.3843 14.2389 -70.364 14.0482 -70.3437 13.8575C-70.3098 13.5715 -70.2827 13.2923 -70.2624 13.0063C-70.259 12.9314 -70.254 12.8565 -70.2489 12.7815C-70.2438 12.7066 -70.2387 12.6317 -70.2353 12.5568C-70.2286 12.4342 -70.2218 12.3099 -70.215 12.1856C-70.2082 12.0613 -70.2015 11.9371 -70.1947 11.8145C-70.1879 11.6647 -70.1812 11.5149 -70.1812 11.365C-70.1676 11.0999 -70.1676 10.8415 -70.1676 10.5764V10.1937C-70.1676 9.80553 -70.1744 9.42416 -70.188 9.03598C-69.0707 9.55355 -67.8721 9.86682 -66.6533 9.9894C-66.4095 10.0098 -66.1658 10.0303 -65.922 10.0371C-65.4344 10.0507 -64.9402 10.0371 -64.4526 9.99621C-63.9651 9.94854 -63.4775 9.87362 -62.9968 9.77147C-61.5545 9.45821 -60.1799 8.87254 -58.9746 8.02127C-57.3156 6.84994 -55.9884 5.41981 -55.1962 3.86711C-55.0608 3.60832 -54.9457 3.34273 -54.8441 3.07714C-54.8306 3.03627 -54.817 3.00222 -54.8035 2.96136L-54.4717 3.29506C-54.4276 3.33592 -54.3853 3.37848 -54.343 3.42105C-54.3007 3.46361 -54.2584 3.50617 -54.2143 3.54703C-53.9977 3.75134 -53.7742 3.95564 -53.5508 4.15994C-53.4627 4.24166 -53.3815 4.31658 -53.2935 4.39149C-53.0632 4.59579 -52.833 4.79329 -52.596 4.99078C-52.5554 5.02482 -52.5148 5.05716 -52.4742 5.08951C-52.4335 5.12186 -52.3929 5.15421 -52.3522 5.18827C-52.2685 5.25423 -52.1849 5.32095 -52.1012 5.38767C-51.9343 5.52071 -51.7675 5.65375 -51.6006 5.78075C-51.5397 5.82842 -51.4787 5.86928 -51.4178 5.91695C-51.1402 6.12806 -50.8625 6.33237 -50.5782 6.52986C-43.9761 11.1335 -35.6474 13.0131 -27.4473 10.4865C-24.0684 18.8289 -15.7058 24.8899 -6.76764 25.4824C2.17052 26.0681 11.2509 21.158 15.6861 13.3332C20.9203 17.1468 28.7887 15.5396 33.3119 10.8951C33.6573 10.541 33.9823 10.1733 34.2937 9.7919C34.3342 9.91409 34.3815 10.0363 34.4287 10.1585L34.4292 10.1597C34.4969 10.3367 34.5714 10.5138 34.6459 10.6908C34.6764 10.7557 34.707 10.8189 34.7375 10.8821C34.7679 10.9449 34.7983 11.0077 34.8287 11.0722C34.8401 11.0967 34.8515 11.1217 34.863 11.1468C34.8992 11.2263 34.9365 11.3079 34.9776 11.3855C35.0454 11.5217 35.1131 11.6511 35.1875 11.7805C35.2146 11.8247 35.24 11.8707 35.2654 11.9166C35.2908 11.9626 35.3162 12.0086 35.3433 12.0529C35.384 12.1177 35.4248 12.1843 35.4655 12.2508C35.506 12.3171 35.5465 12.3833 35.5871 12.4478C35.6142 12.4888 35.6396 12.5297 35.6651 12.5706C35.6904 12.6114 35.7158 12.6522 35.7428 12.693C35.8308 12.8292 35.9189 12.9654 36.0137 13.0948C36.0438 13.1424 36.0766 13.1872 36.1086 13.231C36.1271 13.2562 36.1453 13.2811 36.1626 13.3059C36.2642 13.4489 36.3658 13.5783 36.4741 13.7145C36.4978 13.7417 36.5198 13.7689 36.5417 13.7961C36.5638 13.8234 36.5858 13.8507 36.6096 13.878C36.6525 13.9284 36.6947 13.9788 36.7365 14.0289C36.8134 14.121 36.8895 14.212 36.9684 14.3002C37.0022 14.3342 37.0294 14.3615 37.0564 14.3955C39.5822 17.1877 43.1913 18.7268 47.0645 17.7121C48.0125 17.4669 48.974 17.0787 49.9355 16.5067C50.5517 20.5246 52.5289 24.4677 55.8807 26.7355C59.2326 29.0032 64.0606 29.2211 67.2024 26.6674C67.2972 31.0803 70.0802 35.1664 73.818 37.4818C77.5558 39.7972 82.1129 40.5055 86.4872 40.1854C91.3084 39.8381 96.0821 37.9721 99.6913 34.6965C103.93 30.842 104.668 25.748 104.35 20.1501C105.284 20.334 106.232 20.4633 107.187 20.511C107.492 20.5246 107.79 20.5246 108.095 20.5246C108.149 20.5246 108.203 20.5229 108.257 20.5212C108.311 20.5195 108.365 20.5178 108.42 20.5178C108.575 20.511 108.731 20.5042 108.887 20.4906C109.063 20.477 109.239 20.4633 109.415 20.4429C109.456 20.4361 109.498 20.431 109.54 20.4259C109.583 20.4208 109.625 20.4157 109.665 20.4089C109.896 20.3748 110.126 20.334 110.356 20.2863C110.404 20.2795 110.458 20.2659 110.512 20.2522C110.762 20.1978 111.013 20.1297 111.263 20.0547C113.241 19.435 114.717 18.1615 115.753 16.5271C117.012 14.5522 117.635 12.0529 117.757 9.56717C118.773 10.4933 120.005 11.2016 121.305 11.5966C124.691 12.6181 128.375 11.8826 131.666 10.5819C131.747 10.8883 131.848 11.188 131.95 11.4808L131.95 11.4824C131.977 11.5636 132.004 11.6448 132.038 11.726C132.126 11.9711 132.228 12.2095 132.329 12.441C132.349 12.4955 132.377 12.5568 132.404 12.6181C132.532 12.8973 132.668 13.1697 132.817 13.4421C132.864 13.5307 132.911 13.6124 132.959 13.6941C133.074 13.8916 133.189 14.0891 133.311 14.2798C133.365 14.3683 133.419 14.4568 133.48 14.5454C133.643 14.7905 133.812 15.0289 133.988 15.2672C134.032 15.3285 134.078 15.387 134.124 15.4445C134.149 15.4764 134.174 15.508 134.198 15.5396C134.244 15.5953 134.289 15.6509 134.333 15.7063C134.414 15.8067 134.494 15.9061 134.577 16.0027L134.862 16.3296C134.983 16.4649 135.11 16.6003 135.238 16.7356L135.241 16.7382C135.41 16.9153 135.586 17.0923 135.762 17.2626C135.871 17.3716 135.986 17.4805 136.101 17.5895C136.177 17.6623 136.258 17.7327 136.34 17.8036C136.396 17.852 136.452 17.9007 136.507 17.9504L136.791 18.1956C137.13 18.4816 137.482 18.754 137.841 19.0196C137.958 19.1059 138.076 19.1861 138.193 19.2663C138.252 19.3064 138.31 19.3465 138.369 19.3873C138.41 19.4144 138.448 19.4398 138.487 19.4652C138.526 19.4909 138.565 19.5166 138.606 19.544C140.292 20.654 142.161 21.5325 144.098 22.1114C147.551 23.1533 151.194 23.2623 154.343 22.1318C157.891 20.8583 160.816 17.8959 162.184 14.4092C164.52 14.0618 166.782 13.2038 168.745 11.8962C168.779 11.9609 168.815 12.0256 168.85 12.0903C168.886 12.155 168.921 12.2197 168.955 12.2844C169.057 12.4751 169.158 12.659 169.267 12.8428C169.382 13.0471 169.504 13.2514 169.626 13.4557C169.741 13.6464 169.856 13.8303 169.971 14.021C170.032 14.1125 170.092 14.2056 170.153 14.2988C170.214 14.3929 170.275 14.487 170.337 14.5794C170.372 14.6334 170.406 14.6875 170.441 14.7413C170.533 14.8844 170.624 15.0266 170.723 15.1651C170.78 15.2468 170.838 15.3268 170.895 15.4068C170.953 15.4868 171.01 15.5669 171.068 15.6486C171.112 15.7092 171.156 15.7705 171.201 15.832C171.306 15.9776 171.412 16.1247 171.522 16.2683C171.548 16.3076 171.577 16.3441 171.605 16.3796C171.62 16.3995 171.636 16.419 171.65 16.4386C172.084 17.0106 172.544 17.569 173.018 18.107C173.052 18.1479 173.093 18.1956 173.133 18.2432L173.135 18.2455C173.351 18.4831 173.567 18.7207 173.79 18.9515C173.871 19.04 173.953 19.1286 174.034 19.2103C174.249 19.4336 174.471 19.6502 174.693 19.8668L174.697 19.8709C174.792 19.9526 174.88 20.0411 174.968 20.1297C175.197 20.3463 175.426 20.5562 175.655 20.7661L175.659 20.7698C175.747 20.8447 175.842 20.9264 175.93 21.0082C176.167 21.2193 176.411 21.4236 176.654 21.6279C176.695 21.662 176.738 21.6962 176.78 21.7304C176.822 21.7643 176.864 21.7982 176.905 21.8322C177.169 22.0433 177.426 22.2476 177.69 22.4519C177.721 22.4757 177.753 22.4994 177.785 22.5232C177.817 22.5471 177.849 22.571 177.88 22.5949C184.868 27.8387 193.914 30.0928 202.812 27.3484C206.326 36.0313 215.027 42.3374 224.324 42.9503C233.628 43.5632 243.067 38.4557 247.686 30.3108C253.13 34.2742 261.316 32.599 266.022 27.7706C266.957 26.8104 267.763 25.7616 268.467 24.6379C268.792 24.1136 269.097 23.5756 269.374 23.0239C269.401 22.9763 269.428 22.9218 269.455 22.8673C269.57 22.6368 269.678 22.3995 269.786 22.1622L269.787 22.1591C269.835 22.0569 269.875 21.9548 269.923 21.8526C270.024 21.6211 270.119 21.3895 270.214 21.158L270.336 20.8311C270.365 20.7516 270.395 20.6722 270.425 20.5927C270.485 20.4338 270.546 20.2749 270.6 20.116C270.62 20.0547 270.64 20.0003 270.661 19.939C270.823 19.4554 270.972 18.9651 271.108 18.468C271.126 18.3997 271.145 18.3294 271.164 18.2592C271.179 18.2034 271.194 18.1477 271.209 18.0934L271.21 18.0902C271.264 17.8802 271.318 17.6701 271.365 17.4533C271.382 17.3716 271.4 17.2898 271.419 17.2081C271.438 17.1264 271.456 17.0447 271.473 16.9629C271.514 16.7655 271.554 16.5612 271.595 16.3569C271.617 16.2333 271.639 16.1126 271.661 15.9911C271.673 15.925 271.685 15.8587 271.697 15.7916C271.731 15.6077 271.764 15.4171 271.792 15.2332C271.832 14.9608 271.866 14.6884 271.9 14.416C271.927 14.2265 271.947 14.037 271.967 13.8476L271.968 13.8439C272.001 13.5579 272.028 13.2787 272.049 12.9927C272.052 12.9177 272.057 12.8428 272.062 12.7679C272.067 12.693 272.073 12.6181 272.076 12.5432L272.096 12.172C272.103 12.0477 272.11 11.9234 272.117 11.8009C272.123 11.6511 272.13 11.5012 272.13 11.3514C272.144 11.0867 272.144 10.8287 272.144 10.564V10.1801C272.144 9.7919 272.137 9.41054 272.123 9.02236C273.241 9.53993 274.439 9.8532 275.658 9.97578C275.902 9.99621 276.145 10.0166 276.389 10.0234C276.877 10.0371 277.371 10.0234 277.859 9.98259C278.346 9.93492 278.834 9.86 279.314 9.75785C280.757 9.44459 282.131 8.85892 283.337 8.00765C284.996 6.83632 286.323 5.40619 287.115 3.85349C287.25 3.5947 287.366 3.32911 287.467 3.06352C287.481 3.02265 287.494 2.9886 287.508 2.94775L287.84 3.28144C287.884 3.3223 287.926 3.36486 287.968 3.40743C288.011 3.44999 288.053 3.49255 288.097 3.53341C288.314 3.73772 288.537 3.94202 288.76 4.14632C288.849 4.22804 288.93 4.30296 289.018 4.37787C289.248 4.58217 289.478 4.77966 289.715 4.97716C289.756 5.0112 289.796 5.04354 289.837 5.07588C289.878 5.10824 289.918 5.14059 289.959 5.17465C290.21 5.37214 290.46 5.57645 290.711 5.76713C290.741 5.79102 290.772 5.8132 290.802 5.83539C290.833 5.85747 290.863 5.87955 290.893 5.90333C291.171 6.11445 291.449 6.31875 291.733 6.51624C298.335 11.1199 306.664 12.9995 314.864 10.4729C318.243 18.8153 326.605 24.8763 335.544 25.4688C344.482 26.0544 353.562 21.1444 357.997 13.3195C363.232 17.1332 371.1 15.526 375.623 10.8815C375.969 10.5274 376.294 10.1596 376.605 9.77828C376.646 9.90087 376.693 10.0234 376.74 10.146C376.807 10.3208 376.881 10.4956 376.954 10.6704L376.957 10.6772C377.018 10.8066 377.079 10.9292 377.14 11.0586C377.151 11.0832 377.163 11.1082 377.174 11.1334C377.211 11.2129 377.248 11.2943 377.289 11.3719C377.357 11.5081 377.424 11.6374 377.499 11.7668C377.526 11.8111 377.551 11.8571 377.577 11.903C377.602 11.949 377.627 11.995 377.655 12.0392C377.695 12.1043 377.736 12.171 377.777 12.2377C377.818 12.3038 377.858 12.3699 377.898 12.4342C377.925 12.4751 377.951 12.5159 377.976 12.5568C378.002 12.5977 378.027 12.6385 378.054 12.6794C378.142 12.8156 378.23 12.9518 378.325 13.0812C378.372 13.1561 378.426 13.2242 378.474 13.2923C378.575 13.4353 378.677 13.5647 378.785 13.7009C378.833 13.7554 378.873 13.8099 378.921 13.8643C379.043 14.0074 379.158 14.1504 379.28 14.2866C379.314 14.3206 379.341 14.3479 379.368 14.3819C381.893 17.1741 385.502 18.7131 389.376 17.6984C390.324 17.4533 391.285 17.0651 392.247 16.4931C392.863 20.511 394.84 24.4541 398.192 26.7218C401.544 28.9896 406.372 29.2075 409.514 26.6537C409.608 31.0667 412.391 35.1528 416.129 37.4682C419.867 39.7836 424.424 40.4919 428.798 40.1718C433.62 39.8245 438.393 37.9585 442.003 34.6829C446.241 30.8283 446.979 25.7344 446.661 20.1365C447.596 20.3203 448.544 20.4497 449.498 20.4974C449.803 20.511 450.101 20.511 450.406 20.511C450.46 20.511 450.514 20.5093 450.568 20.5076C450.622 20.5059 450.677 20.5042 450.731 20.5042C450.886 20.4974 451.042 20.4906 451.198 20.477C451.374 20.4633 451.55 20.4497 451.726 20.4293C451.767 20.4225 451.809 20.4174 451.851 20.4123C451.894 20.4072 451.936 20.4021 451.977 20.3952C452.207 20.3612 452.437 20.3203 452.667 20.2727C452.715 20.2659 452.769 20.2522 452.823 20.2386C453.074 20.1841 453.324 20.116 453.575 20.0411C455.552 19.4214 457.028 18.1479 458.064 16.5135C459.324 14.5385 459.947 12.0392 460.068 9.55355C461.084 10.4797 462.317 11.188 463.617 11.583C467.002 12.6045 470.686 11.869 473.977 10.5683C474.058 10.8747 474.16 11.1744 474.261 11.4672C474.288 11.5489 474.315 11.6306 474.349 11.7124C474.437 11.9575 474.539 12.1959 474.64 12.4274C474.661 12.4819 474.688 12.5432 474.715 12.6045C474.843 12.8837 474.979 13.1561 475.128 13.4285C475.175 13.517 475.223 13.5988 475.27 13.6805C475.385 13.878 475.5 14.0755 475.622 14.2661C475.676 14.3547 475.73 14.4432 475.791 14.5317C475.954 14.7769 476.123 15.0153 476.299 15.2536C476.367 15.349 476.442 15.4375 476.509 15.526C476.556 15.5823 476.601 15.6386 476.646 15.6946C476.726 15.7944 476.806 15.8931 476.888 15.9891L477.173 16.316C477.295 16.4522 477.423 16.5884 477.552 16.7246C477.721 16.9017 477.897 17.0787 478.073 17.249C478.182 17.3579 478.297 17.4669 478.412 17.5759C478.488 17.6486 478.569 17.7189 478.651 17.7897C478.707 17.8382 478.763 17.8869 478.818 17.9368L479.103 18.182C479.441 18.468 479.793 18.7404 480.152 19.006C480.27 19.0926 480.388 19.1732 480.506 19.2537C480.564 19.2935 480.622 19.3332 480.68 19.3737C480.762 19.4282 480.836 19.4759 480.917 19.5304C482.604 20.6404 484.472 21.5189 486.409 22.0978C489.862 23.1397 493.505 23.2487 496.654 22.1182C500.202 20.8447 503.127 17.8823 504.495 14.3955C506.831 14.0482 509.093 13.1901 511.057 11.8826C511.09 11.9473 511.126 12.012 511.162 12.0767C511.197 12.1414 511.233 12.2061 511.267 12.2708C511.368 12.4615 511.47 12.6453 511.578 12.8292C511.693 13.0335 511.815 13.2378 511.937 13.4421C512.011 13.5655 512.086 13.6861 512.16 13.8075C512.201 13.8736 512.242 13.9401 512.282 14.0074C512.372 14.1428 512.462 14.282 512.552 14.4194C512.584 14.4685 512.616 14.5174 512.648 14.5658C512.777 14.7633 512.898 14.9608 513.034 15.1515C513.091 15.2332 513.149 15.3132 513.206 15.3932C513.264 15.4732 513.322 15.5532 513.379 15.635C513.423 15.6949 513.466 15.7553 513.51 15.816C513.616 15.9624 513.723 16.1103 513.833 16.2547C513.859 16.2942 513.888 16.3308 513.916 16.3665C513.932 16.3862 513.947 16.4056 513.961 16.425C514.395 16.997 514.855 17.5554 515.329 18.0934C515.363 18.1343 515.404 18.182 515.444 18.2296C515.661 18.468 515.878 18.7063 516.101 18.9379C516.182 19.0264 516.264 19.1149 516.345 19.1967C516.562 19.4214 516.785 19.6393 517.009 19.8572C517.103 19.939 517.191 20.0275 517.279 20.116C517.51 20.334 517.74 20.5451 517.97 20.7562C518.058 20.8311 518.153 20.9128 518.241 20.9945C518.478 21.2056 518.722 21.41 518.966 21.6143C519.006 21.6483 519.049 21.6824 519.091 21.7164C519.133 21.7505 519.175 21.7845 519.216 21.8186C519.48 22.0297 519.737 22.234 520.002 22.4383C520.032 22.4621 520.064 22.486 520.096 22.5098C520.129 22.5336 520.161 22.5575 520.191 22.5813C527.179 27.8251 536.226 30.0792 545.123 27.3347C548.638 36.0176 557.339 42.3238 566.636 42.9367C575.94 43.5496 585.379 38.442 589.997 30.2971C595.441 34.2606 603.627 32.5853 608.334 27.757C609.268 26.7967 610.074 25.748 610.778 24.6243C611.103 24.0999 611.408 23.5619 611.685 23.0103C611.701 22.9825 611.717 22.9524 611.733 22.9213C611.744 22.8991 611.755 22.8764 611.767 22.8537C611.882 22.6222 611.99 22.3838 612.098 22.1454C612.122 22.0944 612.144 22.0433 612.166 21.9922C612.188 21.9411 612.21 21.8901 612.234 21.839C612.335 21.6074 612.43 21.3759 612.525 21.1444C612.572 21.0354 612.613 20.9264 612.654 20.8175C612.683 20.7373 612.714 20.6572 612.744 20.5771C612.804 20.4189 612.864 20.2606 612.918 20.1024C612.938 20.0411 612.958 19.9866 612.979 19.9253C613.141 19.4418 613.29 18.9515 613.426 18.4544C613.459 18.3318 613.493 18.2024 613.527 18.0798C613.581 17.8687 613.635 17.6576 613.683 17.4397C613.7 17.3579 613.718 17.2762 613.737 17.1945C613.756 17.1128 613.774 17.031 613.791 16.9493C613.808 16.8693 613.824 16.7882 613.841 16.7064C613.865 16.5863 613.889 16.4648 613.913 16.3432C613.94 16.1904 613.967 16.0419 613.994 15.8907L614.015 15.778C614.049 15.5941 614.082 15.4034 614.109 15.2196C614.15 14.9472 614.184 14.6748 614.218 14.4023C614.245 14.2141 614.265 14.0259 614.285 13.8377L614.286 13.8303C614.319 13.5443 614.347 13.2651 614.367 12.979C614.37 12.9036 614.375 12.8282 614.38 12.7529C614.385 12.6784 614.391 12.604 614.394 12.5296C614.408 12.2844 614.421 12.0324 614.435 11.7873C614.441 11.6374 614.448 11.4876 614.448 11.3378C614.462 11.0722 614.462 10.8134 614.462 10.5478V10.1665C614.462 9.77828 614.455 9.39692 614.441 9.00874C615.559 9.52631 616.757 9.83958 617.976 9.96216C618.22 9.98259 618.463 10.003 618.707 10.0098C619.195 10.0234 619.689 10.0098 620.177 9.96897C620.664 9.9213 621.152 9.84638 621.632 9.74423C623.075 9.43097 624.449 8.8453 625.655 7.99404C627.314 6.8227 628.641 5.39257 629.433 3.83987C629.568 3.58108 629.684 3.31549 629.785 3.0499C629.792 3.02982 629.798 3.01139 629.805 2.99299C629.812 2.97393 629.819 2.95491 629.826 2.93412L630.158 3.26782C630.246 3.34954 630.327 3.43807 630.415 3.51979C630.632 3.7241 630.855 3.9284 631.078 4.1327C631.166 4.21442 631.248 4.28934 631.336 4.36425C631.566 4.56855 631.796 4.76604 632.033 4.96354C632.114 5.03164 632.196 5.09293 632.277 5.16103C632.36 5.22687 632.444 5.29347 632.528 5.36006C632.695 5.49323 632.862 5.6264 633.029 5.75351C633.059 5.77735 633.09 5.79949 633.12 5.82162C633.151 5.84375 633.181 5.86588 633.211 5.88971C633.489 6.10083 633.767 6.30513 634.051 6.50262C640.653 11.1063 648.982 12.9858 657.182 10.4593C660.561 18.8017 668.923 24.8627 677.862 25.4552C686.8 26.0408 695.88 21.1307 700.315 13.3059C705.55 17.1196 713.418 15.5124 717.941 10.8679C719.262 9.5195 720.325 7.9736 721.171 6.31194C721.198 6.26427 721.225 6.2166 721.252 6.16211C721.361 5.93738 721.469 5.71265 721.571 5.4811C721.611 5.38576 721.659 5.28361 721.699 5.18827C721.794 4.97035 721.889 4.74561 721.977 4.52088C722.018 4.41192 722.058 4.30976 722.099 4.20761C722.155 4.06297 722.212 3.91551 722.267 3.76705C722.297 3.68483 722.327 3.60231 722.356 3.51979C722.367 3.4918 722.375 3.4638 722.384 3.43581C722.392 3.40932 722.4 3.38283 722.41 3.35635C722.573 2.88645 722.715 2.41655 722.844 1.93985C722.876 1.82921 722.908 1.71235 722.941 1.59521L722.945 1.57891C722.999 1.37461 723.047 1.16349 723.094 0.959191C723.135 0.802559 723.169 0.645926 723.202 0.489294C723.235 0.351897 723.262 0.217792 723.289 0.082399C723.3 0.0231807 723.312 -0.0362819 723.324 -0.0963759C723.341 -0.184908 723.357 -0.275143 723.372 -0.36538C723.387 -0.455612 723.402 -0.545843 723.419 -0.634373C723.446 -0.811434 723.48 -0.995308 723.507 -1.17237C723.548 -1.43797 723.582 -1.69675 723.616 -1.96235L723.676 -2.51396L723.679 -2.53414C723.705 -2.79982 723.731 -3.0655 723.751 -3.33118C723.755 -3.41763 723.762 -3.50408 723.768 -3.59053C723.772 -3.64709 723.775 -3.70365 723.778 -3.76022C723.798 -3.99857 723.812 -4.23692 723.819 -4.47528C723.825 -4.61829 723.832 -4.7613 723.832 -4.90431C723.846 -5.16145 723.846 -5.41187 723.846 -5.66224V-6.02798C723.846 -6.40254 723.839 -6.77709 723.825 -7.14484C724.895 -6.6477 726.046 -6.34125 727.218 -6.22547C727.692 -6.17781 728.159 -6.16418 728.633 -6.17781C729.107 -6.19142 729.574 -6.23228 730.041 -6.30719C730.278 -6.34124 730.509 -6.38892 730.739 -6.43659C731.138 -6.52512 731.538 -6.63408 731.931 -6.77028C732.879 -7.09717 733.779 -7.53982 734.599 -8.11868C736.19 -9.24235 737.463 -10.6112 738.228 -12.1094C738.357 -12.3546 738.472 -12.6065 738.567 -12.8653Z" fill="black"/>
</g>
<defs>
<clipPath id="clip0_325_551">
<rect width="418" height="43" fill="white"/>
</clipPath>
</defs>
</svg>
