<svg width="133" height="344" viewBox="0 0 133 344" fill="none" xmlns="http://www.w3.org/2000/svg">
<g clip-path="url(#clip0_3001_888)">
<mask id="path-1-outside-1_3001_888" maskUnits="userSpaceOnUse" x="-1" y="-77.2472" width="434" height="499" fill="black">
<rect fill="white" x="-1" y="-77.2472" width="434" height="499"/>
<path fill-rule="evenodd" clip-rule="evenodd" d="M425.145 172.254C424.925 305.963 316.403 414.176 182.756 413.955C116.236 413.845 56.0297 386.894 12.3581 343.361C77.6588 313.987 123.126 248.36 123.126 172.113C123.126 95.7274 77.4926 29.9997 12 0.705065C55.8896 -43.2254 116.566 -70.3575 183.555 -70.2469C317.203 -70.026 425.366 38.5454 425.145 172.254Z"/>
</mask>
<path d="M182.756 413.955L182.744 420.955L182.744 420.955L182.756 413.955ZM425.145 172.254L432.145 172.266L425.145 172.254ZM12.3581 343.361L9.48645 336.977L0.220047 341.145L7.41619 348.319L12.3581 343.361ZM12 0.705065L7.04795 -4.24238L-0.133769 2.94602L9.14182 7.09496L12 0.705065ZM183.555 -70.2469L183.544 -63.2469L183.555 -70.2469ZM182.744 420.955C320.261 421.183 431.918 309.837 432.145 172.266L418.146 172.243C417.931 302.088 312.546 407.17 182.767 406.955L182.744 420.955ZM7.41619 348.319C52.3434 393.103 114.301 420.842 182.744 420.955L182.767 406.955C118.171 406.849 59.7161 380.685 17.2999 338.403L7.41619 348.319ZM116.126 172.113C116.126 245.506 72.3669 308.692 9.48645 336.977L15.2297 349.745C82.9508 319.283 130.126 251.215 130.126 172.113H116.126ZM9.14182 7.09496C72.2068 35.3037 116.126 98.5872 116.126 172.113H130.126C130.126 92.8676 82.7783 24.6956 14.8582 -5.68483L9.14182 7.09496ZM183.567 -77.2468C114.641 -77.3607 52.1991 -49.4356 7.04795 -4.24238L16.952 5.65251C59.5801 -37.0152 118.491 -63.3544 183.544 -63.2469L183.567 -77.2468ZM432.145 172.266C432.373 34.694 321.083 -77.0196 183.567 -77.2468L183.544 -63.2469C313.322 -63.0324 418.36 42.3968 418.146 172.243L432.145 172.266Z" fill="#077CEA" mask="url(#path-1-outside-1_3001_888)"/>
</g>
<defs>
<clipPath id="clip0_3001_888">
<rect width="133" height="344" fill="white"/>
</clipPath>
</defs>
</svg>
