<svg width="16" height="16" viewBox="0 0 16 16" fill="none" xmlns="http://www.w3.org/2000/svg">
<path d="M5.79961 8.4C5.79961 6.315 3.68461 4.2 1.59961 4.2C3.68461 4.2 5.79961 2.085 5.79961 0C5.79961 2.085 7.91461 4.2 9.99961 4.2C7.91461 4.2 5.79961 6.315 5.79961 8.4Z" fill="#077CEA"/>
<path d="M5.79961 8.4C5.79961 6.315 3.68461 4.2 1.59961 4.2C3.68461 4.2 5.79961 2.085 5.79961 0C5.79961 2.085 7.91461 4.2 9.99961 4.2C7.91461 4.2 5.79961 6.315 5.79961 8.4Z" fill="#077CEA"/>
<path d="M10.4008 16C10.4008 13.2224 7.57838 10.4 4.80078 10.4C7.57838 10.4 10.4008 7.57765 10.4008 4.80005C10.4008 7.57765 13.2232 10.4 16.0008 10.4C13.2232 10.4 10.4008 13.2224 10.4008 16Z" fill="#077CEA"/>
<path d="M10.4008 16C10.4008 13.2224 7.57838 10.4 4.80078 10.4C7.57838 10.4 10.4008 7.57765 10.4008 4.80005C10.4008 7.57765 13.2232 10.4 16.0008 10.4C13.2232 10.4 10.4008 13.2224 10.4008 16Z" fill="#077CEA"/>
<path d="M2.8 15.2C2.8 13.812 1.388 12.4 0 12.4C1.388 12.4 2.8 10.988 2.8 9.59998C2.8 10.988 4.212 12.4 5.6 12.4C4.212 12.4 2.8 13.812 2.8 15.2Z" fill="#077CEA"/>
</svg>
